<svg version="1.1" xmlns="http://www.w3.org/2000/svg" style="display: block;" viewBox="0 0 2048 2048" width="1024" height="1024">
<defs>
	<linearGradient id="Gradient1" gradientUnits="userSpaceOnUse" x1="1061.15" y1="1289.19" x2="1053.43" y2="1311">
		<stop class="stop0" offset="0" stop-opacity="1" stop-color="rgb(252,252,233)"/>
		<stop class="stop1" offset="1" stop-opacity="1" stop-color="rgb(254,254,255)"/>
	</linearGradient>
</defs>
<path transform="translate(0,0)" fill="rgb(0,0,0)" d="M 0 0 L 2048 0 L 2048 1008.23 L 2048 2048 L 0 2048 L 0 1043.96 L 0 0 z"/>
<path transform="translate(0,0)" fill="rgb(254,234,121)" d="M 667.751 1398.94 C 669.529 1404.79 668.068 1413.83 667.709 1419.96 C 666.765 1436.11 666.389 1453.07 662.79 1468.88 C 658.651 1487.07 651.736 1504 649.596 1522.68 C 633.223 1517.08 617.145 1510.82 602.51 1501.48 C 595.662 1496.04 588.882 1489.27 584.757 1481.5 C 581.077 1474.56 579.697 1466.86 582.205 1459.29 C 589.819 1436.3 645.784 1409.88 667.751 1398.94 z"/>
<path transform="translate(0,0)" fill="rgb(205,184,65)" d="M 51.7418 1658.44 C 63.073 1668.79 73.0305 1692.14 82.2112 1705.52 A 587.08 587.08 0 0 0 138.879 1776.45 C 229.29 1872.85 371.915 1926.84 502.606 1930.74 C 609.12 1933.93 735.503 1884.68 819.782 1821.37 C 838.791 1807.09 855.549 1789.83 872.796 1773.53 L 886.05 1783.07 L 881.347 1788.03 C 819.61 1850.32 756.756 1887.13 674.041 1916.09 C 651.755 1923.9 629.337 1931.56 606.262 1936.68 C 475.424 1965.77 329.825 1933.33 217.644 1861.79 C 159.39 1824.64 106.513 1771.54 69.611 1713.13 C 61.903 1700.93 52.5005 1685.97 49.6343 1671.61 C 48.5644 1666.25 48.7572 1663.1 51.7418 1658.44 z"/>
<path transform="translate(0,0)" fill="rgb(254,234,121)" d="M 589.258 1531.8 C 605.485 1530.55 640.585 1551.05 653.692 1560.49 C 681.281 1643.08 691.887 1644.13 761.612 1690.46 C 784.529 1705.68 808.564 1725.65 830.123 1743.03 C 816.078 1757.66 799.782 1769.81 783.553 1781.85 C 769.663 1791.6 734.869 1818.31 718.402 1815.52 C 704.195 1813.11 689.432 1792.25 681.863 1781.22 C 658.853 1747.7 571.118 1577.93 578.104 1545.51 C 579.541 1538.84 583.785 1535.37 589.258 1531.8 z"/>
<path transform="translate(0,0)" fill="rgb(254,253,242)" d="M 773.933 1739.71 C 778.567 1741.25 782.726 1744.75 786.379 1747.92 C 769.138 1762.15 751.918 1776.57 735.618 1791.87 C 732.575 1794.48 728.988 1796.59 725.648 1798.81 L 726.092 1797.84 C 726.344 1797.31 726.608 1796.78 726.857 1796.24 C 736.318 1775.93 764.589 1760.66 772.543 1746 C 773.538 1744.16 773.718 1741.76 773.933 1739.71 z"/>
<path transform="translate(0,0)" fill="rgb(254,253,242)" d="M 591.474 1570.71 C 593.034 1570.95 594.144 1571.14 595.538 1571.87 C 616.56 1582.83 688.135 1650.94 703.85 1671.59 C 706.754 1675.41 708.577 1679.16 709.974 1683.72 C 708.406 1683.28 709 1683.56 707.429 1682.55 C 693.393 1673.51 677.451 1654.27 664.603 1642.39 C 642.761 1622.2 618.735 1604.07 598.486 1582.17 C 595.124 1578.53 592.421 1575.74 591.474 1570.71 z"/>
<path transform="translate(0,0)" fill="rgb(225,214,170)" d="M 247.832 1295.28 A 180.735 180.735 0 0 0 308.038 1285.64 C 323.567 1294.17 338.705 1303.39 354.584 1311.27 C 450.149 1358.72 539.451 1377.05 645.728 1376.88 C 583.342 1408.58 522.42 1443.97 456.943 1469.24 C 453.261 1463.45 425.16 1453.78 417.396 1450.28 C 382.804 1434.7 350.1 1416.25 321.543 1391.04 C 303.139 1374.78 249.279 1318.05 247.832 1295.28 z"/>
<path transform="translate(0,0)" fill="rgb(254,253,242)" d="M 59.0423 1655.04 C 71.3951 1648.29 85.05 1643.31 97.921 1637.54 L 170.291 1604.78 L 415.996 1496.08 C 452.924 1480.05 490.258 1464.66 526.779 1447.71 C 558.015 1433.22 588.326 1417.39 618.656 1401.12 C 635.297 1392.2 652.183 1383.63 668.343 1373.85 L 668.99 1374.19 C 669.31 1379.56 669.029 1385.04 668.971 1390.42 A 667.156 667.156 0 0 0 650.88 1399.17 C 629.512 1410.01 581.647 1433 574.322 1457.55 C 571.245 1467.86 573.965 1478.05 579.248 1487.12 C 593.052 1510.82 624.137 1523.98 649.491 1530.91 L 650.172 1548.48 C 634.3 1540.19 614.95 1527.96 597.333 1524.47 C 591.407 1523.29 585.801 1523.65 580.779 1527.27 C 574.643 1531.69 571.262 1539.59 570.339 1546.91 C 566.218 1579.57 638.375 1721.45 657.291 1755.11 C 664.959 1768.75 673.191 1782.06 682.742 1794.48 C 690.925 1805.12 704.206 1821.36 718.599 1822.67 C 747.034 1825.27 814.363 1765.84 836.338 1747.55 A 3076.98 3076.98 0 0 0 866.718 1769.86 C 830.736 1806.51 796.14 1832.36 750.766 1856.58 A 592.589 592.589 0 0 1 627.458 1906.65 C 530.474 1933.84 450.723 1927.69 354.858 1898.4 C 278.119 1874.96 202.852 1833.03 146.43 1775.52 C 129.272 1758.04 114.181 1738.52 99.7844 1718.75 C 84.8989 1698.3 70.9168 1677.41 59.0423 1655.04 z"/>
<path transform="translate(0,0)" fill="rgb(0,0,0)" d="M 525.479 1547.08 C 530.946 1546.88 534.929 1547.57 539.337 1551.02 C 545.927 1556.17 550.188 1563.67 553.945 1571 C 559.898 1582.6 564.226 1594.9 569.318 1606.88 C 577.459 1626.05 585.789 1645.29 594.384 1664.26 C 606.012 1689.92 618.528 1715.25 630.922 1740.55 C 641.7 1762.55 666.336 1805.12 668.6 1827.97 C 669.306 1835.09 668.588 1842.4 663.646 1847.92 C 650.301 1862.83 596.456 1877.4 576.561 1881.17 C 563.326 1883.68 550.107 1884.85 536.701 1885.9 C 504.135 1887.51 435.768 1882.92 407.702 1868.42 C 397.751 1863.28 393.669 1857.35 390.553 1847.03 C 396.685 1817.59 416.459 1777.12 428.333 1748.2 L 471.429 1644.62 C 480.36 1623.06 488.818 1601.2 498.313 1579.89 C 504.767 1565.4 509.668 1553.18 525.479 1547.08 z"/>
<path transform="translate(0,0)" fill="rgb(254,234,121)" d="M 526.304 1554.86 C 530.091 1555.07 532.439 1555.62 535.522 1557.92 C 541.688 1562.51 544.754 1569.13 548.084 1575.85 C 565.291 1610.58 578.987 1647.53 595.106 1682.86 A 3697.99 3697.99 0 0 0 627.385 1750.3 C 637.15 1770.08 657.725 1804.13 660.839 1825.24 C 661.671 1830.88 661.575 1838.47 657.844 1843.17 C 648.094 1855.44 591.576 1870.44 575.142 1873.6 C 561.403 1876.25 547.593 1877.63 533.677 1878.88 C 514.808 1879.45 496.244 1879.09 477.485 1876.79 C 460.796 1874.74 407.665 1867.5 400.051 1852.73 C 398.419 1849.56 399.965 1842.4 400.716 1839.1 C 404.697 1821.61 413.297 1803.52 420.061 1786.84 A 10517.2 10517.2 0 0 1 463.547 1682.99 A 3763.34 3763.34 0 0 0 489.25 1620.72 C 496.384 1603.18 503.257 1584.97 512.58 1568.44 C 515.904 1562.55 520.645 1558.42 526.304 1554.86 z"/>
<path transform="translate(0,0)" fill="rgb(0,0,0)" d="M 546.27 1681.71 C 549.335 1684.18 562.38 1753.75 564.673 1763.43 C 563.819 1763.55 562.88 1763.41 562.018 1763.36 C 553.042 1750.33 547.479 1698.8 546.27 1681.71 z"/>
<path transform="translate(0,0)" fill="rgb(0,0,0)" d="M 490.395 1695.74 C 491.56 1707.46 488.517 1788.42 485.635 1797.43 C 481.168 1771.45 484.36 1721.78 490.395 1695.74 z"/>
<path transform="translate(0,0)" fill="rgb(0,0,0)" d="M 531.189 1710.74 L 532.127 1711.79 C 537.066 1734.83 538.331 1760.06 541.031 1783.52 C 542.852 1799.33 547.96 1826.14 546.595 1841.17 C 546.371 1840.98 546.119 1840.82 545.922 1840.6 C 536.92 1830.55 530.308 1728.31 531.189 1710.74 z"/>
<path transform="translate(0,0)" fill="rgb(0,0,0)" d="M 480.946 1482.23 C 486.742 1481.68 492.308 1482.13 497.164 1485.73 C 502.278 1489.52 504.128 1495.77 504.807 1501.83 C 505.814 1510.82 504.308 1519.88 501.899 1528.53 C 496.062 1549.47 486.963 1569.86 478.475 1589.84 A 2211.47 2211.47 0 0 1 436.376 1683.81 C 417.031 1725.33 388.943 1791.63 361.328 1826.85 C 354.498 1835.56 347.93 1841.07 336.69 1842.2 C 296.735 1846.21 231.58 1802.94 200.637 1778.02 C 173.138 1754.18 125.75 1709.66 114.73 1674.57 C 112.602 1667.8 111.429 1659.31 115.211 1652.89 C 119.655 1645.35 128.961 1639.5 136.33 1635.05 C 197.358 1598.23 267.361 1572.31 332.518 1543.59 A 4583.19 4583.19 0 0 1 427.679 1502.56 C 444.977 1495.34 462.759 1486.82 480.946 1482.23 z"/>
<path transform="translate(0,0)" fill="rgb(254,234,121)" d="M 484.241 1489.14 C 487.168 1489.17 489.594 1489.66 492 1491.36 C 495.384 1493.76 496.923 1497.51 497.542 1501.5 C 499.039 1511.15 496.059 1522.19 493.237 1531.38 C 489.641 1543.1 484.687 1554.55 480.205 1565.97 C 466.78 1600.16 451.382 1633.68 436.032 1667.05 C 417.724 1706.85 399.579 1746.95 378.163 1785.2 C 371.716 1796.71 365.337 1808.91 357.515 1819.55 C 351.838 1827.28 345.057 1833.68 335.229 1834.9 C 299.989 1839.29 230.065 1792.25 202.468 1769.75 C 173.167 1745.56 125.387 1698.24 119.272 1660.31 C 119.545 1659.82 119.808 1659.32 120.089 1658.84 C 123.478 1652.96 128.698 1648.38 134.378 1644.81 C 149.479 1635.31 165.817 1627.47 181.763 1619.48 A 1791.14 1791.14 0 0 1 275.154 1576.2 C 293.729 1568.3 312.679 1561.27 331.156 1553.14 A 5841.27 5841.27 0 0 1 421.527 1513.58 C 441.956 1504.8 462.767 1495.05 484.241 1489.14 z"/>
<path transform="translate(0,0)" fill="rgb(0,0,0)" d="M 344.651 1591.1 L 345.308 1591.43 C 342.183 1595.59 227.243 1655.52 212.531 1663.16 L 211.849 1662.69 C 215.214 1655.84 284.148 1619.12 295.104 1613.67 A 799.424 799.424 0 0 1 344.651 1591.1 z"/>
<path transform="translate(0,0)" fill="rgb(0,0,0)" d="M 418.758 1583.03 L 419.301 1584.12 C 403.637 1600.75 387.046 1616.52 371.21 1633.01 C 340.451 1665.04 309.816 1697.99 277.108 1728.01 C 276.514 1727.45 276.857 1727.88 276.688 1726.42 C 293.947 1705.95 312.719 1686.68 331.342 1667.45 C 359.693 1638.18 388.145 1609.97 418.758 1583.03 z"/>
<path transform="translate(0,0)" fill="rgb(254,253,242)" d="M 362.889 1587.76 C 365.23 1587.8 365.533 1587.49 367.562 1588.86 C 362.079 1599.78 275.252 1669.82 259.155 1684.15 C 244.145 1697.52 230.516 1712.59 214.995 1725.36 C 208.561 1730.65 202.234 1734.93 194.68 1738.46 C 197.446 1731.23 200.507 1724.94 204.966 1718.62 L 212.139 1710.32 C 201.769 1713.19 191.539 1715.06 180.816 1716.03 C 187.328 1708.7 194.429 1702.63 202.562 1697.15 C 215.165 1688.65 228.16 1680.37 241.467 1673.01 C 259.418 1663.08 277.815 1654.23 294.757 1642.56 C 318.937 1625.9 337.941 1603.58 362.889 1587.76 z"/>
<path transform="translate(0,0)" fill="rgb(254,253,242)" d="M 445.975 1574.55 L 447.629 1575.63 C 447.662 1575.99 447.739 1576.34 447.73 1576.7 C 447.378 1592.11 374.116 1700.96 361.236 1720.96 C 347.089 1742.91 334.378 1766.09 318.675 1787.01 C 313.262 1794.22 305.777 1800.12 299.217 1806.29 L 293.024 1801.03 C 289.718 1797.38 286.792 1793.39 283.786 1789.48 C 305.951 1762.74 329.707 1737.18 351.871 1710.39 C 366.655 1692.53 380.548 1673.38 394.206 1654.63 C 404.792 1640.1 414.84 1624.65 424.148 1609.28 C 431.214 1597.61 437.733 1585.43 445.975 1574.55 z"/>
<path transform="translate(0,0)" fill="rgb(254,234,121)" d="M 1076.79 701.011 L 1077.28 701.318 C 1076.77 702.593 1033.72 732.156 1028.4 736.335 C 1008.95 751.627 990.353 769.7 974.116 788.373 C 956.43 808.712 938.932 831.367 925.721 854.89 C 868.953 955.963 859.256 1086.91 867.011 1200.34 C 880.999 1404.94 982.967 1626.18 1138.45 1761.69 C 1217.19 1830.32 1322.44 1888.58 1426 1907.3 C 1468.24 1914.94 1510.19 1916.28 1552.98 1913.31 L 1552.8 1913.91 C 1527.28 1917.84 1501.97 1923.42 1476.29 1926.85 C 1434.94 1932.36 1394.36 1932.58 1352.75 1930.91 C 1339.46 1930.6 1325.76 1928.77 1312.54 1927.35 A 920.724 920.724 0 0 1 1167.29 1900.01 A 906.38 906.38 0 0 1 936.396 1802.29 C 923.471 1794.62 910.203 1787.07 897.807 1778.59 C 875.279 1763.17 852.403 1747 830.787 1730.33 C 814.3 1717.62 798.417 1704 781.563 1691.78 C 747.091 1666.78 706.817 1649.4 684.863 1611.05 C 674.585 1593.09 660.849 1556.05 659.815 1535.47 C 658.461 1508.51 672.524 1483.85 676.271 1457.44 C 681.185 1422.82 679.203 1387.69 682.299 1352.87 C 687.537 1293.97 701.517 1235.72 717.067 1178.8 C 743.383 1082.47 791.885 993.424 848.965 912.093 C 861.074 894.839 872.948 877.336 886.329 861.03 C 915.367 825.642 948.578 791.944 983.884 762.793 C 1013.32 738.485 1043.81 719.878 1076.79 701.011 z"/>
<path transform="translate(0,0)" fill="rgb(0,0,0)" d="M 1441.16 1916.76 C 1444.98 1917.18 1447.93 1917.66 1451.03 1920.04 C 1452.3 1922.63 1452.18 1922.84 1451.68 1925.7 C 1449.3 1925.23 1446.74 1924.84 1444.41 1924.11 C 1441.91 1923.33 1441.24 1922.21 1440.02 1920.02 L 1441.16 1916.76 z"/>
<path transform="translate(0,0)" fill="rgb(0,0,0)" d="M 700.277 1530.4 C 702.823 1531.48 704.14 1532.6 705.482 1535.06 C 708.01 1539.69 708.577 1544.26 707.205 1549.32 C 706.976 1549.11 706.729 1548.93 706.518 1548.71 C 702.11 1544.05 699.985 1536.68 700.277 1530.4 z"/>
<path transform="translate(0,0)" fill="rgb(0,0,0)" d="M 979.72 1685.92 C 982.065 1686.87 984.092 1688.4 985.938 1690.12 C 989.578 1693.52 992.256 1696.73 992.408 1701.83 C 988.338 1700.56 985.156 1697.95 982.486 1694.65 C 979.966 1691.55 979.401 1689.81 979.72 1685.92 z"/>
<path transform="translate(0,0)" fill="rgb(0,0,0)" d="M 876.721 1663.17 C 879.469 1664.02 881.34 1665.12 882.984 1667.51 C 885.167 1670.68 885.226 1673.42 884.426 1677.04 C 883.412 1677.02 882.479 1677.03 881.469 1676.84 C 878.914 1676.35 877.943 1675.1 876.49 1673.09 C 875.61 1669.4 876.001 1666.87 876.721 1663.17 z"/>
<path transform="translate(0,0)" fill="rgb(0,0,0)" d="M 810.4 1295.32 C 811.209 1295.48 812.3 1295.67 813.044 1295.9 C 815.586 1296.71 817.884 1298.52 818.953 1301.03 C 820.58 1304.86 819.451 1308 817.853 1311.51 C 816.212 1311.54 815.918 1311.3 814.534 1310.53 C 811.023 1305.76 810.367 1301.15 810.4 1295.32 z"/>
<path transform="translate(0,0)" fill="rgb(0,0,0)" d="M 745.41 1467.53 C 745.766 1467.62 746.136 1467.67 746.478 1467.81 C 749.068 1468.85 750.888 1471.79 752.064 1474.21 C 754.015 1478.23 754.382 1481.27 753.012 1485.5 C 749.224 1483.8 746.57 1481.82 744.964 1477.81 C 743.528 1474.23 743.853 1470.93 745.41 1467.53 z"/>
<path transform="translate(0,0)" fill="rgb(0,0,0)" d="M 710.873 1416.44 C 712.304 1416.85 713.231 1417.1 714.358 1418.17 C 718.398 1422.01 720.264 1429.02 719.745 1434.4 L 715.445 1433.93 C 714.344 1433.22 713.478 1432.52 712.774 1431.39 C 710.206 1427.26 709.986 1421.11 710.873 1416.44 z"/>
<path transform="translate(0,0)" fill="rgb(0,0,0)" d="M 1393.03 1915.67 C 1394.59 1915.93 1395.98 1916.25 1397.5 1916.68 C 1403.51 1918.39 1411.22 1920.13 1414.44 1925.82 C 1408.81 1926.22 1400.11 1925.4 1395.55 1921.7 C 1392.91 1919.55 1393.25 1918.93 1393.03 1915.67 z"/>
<path transform="translate(0,0)" fill="rgb(0,0,0)" d="M 758.709 1588.13 L 761.473 1589.47 C 764.681 1594.3 769.565 1600.42 768.476 1606.27 C 767.396 1606.07 766.524 1605.94 765.469 1605.57 A 11.2491 11.2491 0 0 1 759.108 1600.01 C 757.113 1596.04 757.535 1592.25 758.709 1588.13 z"/>
<path transform="translate(0,0)" fill="rgb(0,0,0)" d="M 760.501 1388.25 C 764.037 1389.19 766.514 1393.02 768.364 1396 C 770.879 1400.06 771.863 1402.79 770.791 1407.51 C 770.119 1407.6 769.454 1407.79 768.776 1407.79 C 766.295 1407.78 764.67 1405.37 763.457 1403.5 C 760.654 1399.18 759.392 1393.24 760.501 1388.25 z"/>
<path transform="translate(0,0)" fill="rgb(0,0,0)" d="M 820.616 1635.53 C 823.78 1636.33 825.43 1638.25 827.607 1640.54 C 831.99 1645.15 835.717 1649.1 835.562 1655.6 C 835.126 1655.56 834.686 1655.54 834.253 1655.47 C 829.927 1654.77 826.151 1651.11 823.763 1647.6 C 821.06 1643.63 819.761 1640.29 820.616 1635.53 z"/>
<path transform="translate(0,0)" fill="rgb(0,0,0)" d="M 1347.55 1892.46 C 1347.84 1892.51 1348.14 1892.52 1348.43 1892.6 C 1352.74 1893.84 1369.89 1908.27 1372.14 1911.99 C 1365.22 1912.04 1358.72 1909.22 1353.61 1904.55 C 1349.31 1900.61 1347.78 1898.12 1347.55 1892.46 z"/>
<path transform="translate(0,0)" fill="rgb(0,0,0)" d="M 1147.27 1850.48 C 1147.71 1850.64 1148.16 1850.78 1148.59 1850.96 C 1154.61 1853.59 1168.92 1873.77 1171.31 1880.42 C 1166.13 1878.71 1162.23 1874.2 1158.65 1870.27 C 1154.23 1865.42 1146.97 1857.22 1147.27 1850.48 z"/>
<path transform="translate(0,0)" fill="rgb(0,0,0)" d="M 1044.48 1820.42 C 1045.54 1820.65 1046.54 1820.71 1047.44 1821.34 C 1051.16 1823.95 1061.83 1845.38 1063.2 1850.35 C 1060.91 1849.61 1059.28 1848.79 1057.6 1847.02 C 1051.49 1840.57 1044.27 1829.5 1044.48 1820.42 z"/>
<path transform="translate(0,0)" fill="rgb(0,0,0)" d="M 756.667 1122.26 C 758.334 1123.06 759.299 1123.74 760.141 1125.46 C 763.466 1132.22 762.8 1147.75 760.398 1154.7 C 759.523 1153.93 758.842 1153.42 758.186 1152.38 C 754.001 1145.77 754.939 1129.65 756.667 1122.26 z"/>
<path transform="translate(0,0)" fill="rgb(0,0,0)" d="M 732.301 1260.2 C 734.562 1260.67 735.903 1260.55 737.214 1262.68 C 740.967 1268.78 743.83 1280.98 741.739 1287.69 C 741.21 1287.71 740.678 1287.8 740.152 1287.74 C 738.631 1287.56 737.963 1286.99 737.148 1285.78 C 733.258 1279.97 730.849 1266.96 732.301 1260.2 z"/>
<path transform="translate(0,0)" fill="rgb(0,0,0)" d="M 722.671 1316.04 C 724.213 1316.41 724.994 1316.59 726.194 1317.7 C 730.439 1321.66 730.563 1342.21 731.083 1348.59 C 728.689 1348.91 728.419 1349.26 726.132 1348.19 C 721.455 1340.18 722.872 1325.29 722.671 1316.04 z"/>
<path transform="translate(0,0)" fill="rgb(0,0,0)" d="M 695.606 1468.3 C 697.668 1469.35 698.467 1469.61 699.606 1471.72 C 703.314 1478.58 707.263 1494.37 704.81 1501.74 C 704.699 1501.73 704.586 1501.74 704.476 1501.71 C 703.024 1501.38 701.837 1501.43 700.974 1500.11 C 696.761 1493.72 693.981 1475.78 695.606 1468.3 z"/>
<path transform="translate(0,0)" fill="rgb(0,0,0)" d="M 900.522 1740.36 C 901.422 1740.5 902.151 1740.57 903.019 1740.93 C 908.185 1743.08 920.826 1765.74 922.427 1771.54 C 920.318 1771.24 918.761 1771.02 917.017 1769.65 C 908.741 1763.13 901.923 1750.87 900.522 1740.36 z"/>
<path transform="translate(0,0)" fill="rgb(0,0,0)" d="M 736.532 1190.59 C 737.998 1191.09 739.164 1191.82 740.146 1193.05 C 744.638 1198.68 754.554 1218.75 753.882 1225.62 C 751.964 1224.81 750.251 1224 748.785 1222.48 C 741.763 1215.22 736.58 1200.81 736.532 1190.59 z"/>
<path transform="translate(0,0)" fill="rgb(0,0,0)" d="M 732.079 1617.81 C 732.295 1617.98 732.533 1618.12 732.726 1618.32 C 733.539 1619.14 748.426 1651.19 749.298 1653.82 C 749.726 1655.11 749.682 1656.15 749.666 1657.49 C 749.104 1657.28 748.509 1657.15 747.978 1656.88 C 742.366 1653.97 736.833 1642.36 734.399 1636.54 C 731.812 1630.34 729.366 1624.31 732.079 1617.81 z"/>
<path transform="translate(0,0)" fill="rgb(0,0,0)" d="M 1206.52 1859.55 C 1208.06 1860.12 1209.04 1860.72 1210.21 1861.87 C 1216.64 1868.19 1232.72 1882.54 1232.74 1891.12 C 1226.33 1888.2 1220.83 1883.01 1216.1 1877.85 C 1211.52 1872.86 1206.23 1866.6 1206.52 1859.55 z"/>
<path transform="translate(0,0)" fill="rgb(0,0,0)" d="M 841.768 943.585 C 843.002 944.401 842.323 943.808 843.461 945.696 C 843.064 951.427 842.288 978.437 840.737 981.8 C 840.315 982.715 839.407 983.314 838.741 984.072 C 837.143 981.848 836.306 980.194 835.785 977.519 C 833.673 966.668 835.518 952.824 841.768 943.585 z"/>
<path transform="translate(0,0)" fill="rgb(0,0,0)" d="M 780.033 1075.39 L 782.647 1076.4 C 786.925 1082.58 789.465 1102.13 788.495 1109.69 C 787.755 1109.63 786.629 1109.57 785.947 1109.33 C 783.959 1108.62 783.05 1107.36 782.161 1105.53 C 778.762 1098.54 777.211 1082.8 780.033 1075.39 z"/>
<path transform="translate(0,0)" fill="rgb(0,0,0)" d="M 996.472 1789.29 C 997.916 1789.61 998.759 1789.98 1000.05 1790.64 C 1004.5 1798.04 1020.67 1820.01 1022.33 1826.8 C 1018.48 1826.04 1016.36 1824.76 1013.64 1821.89 C 1006.3 1814.14 996.013 1800.17 996.472 1789.29 z"/>
<path transform="translate(0,0)" fill="rgb(0,0,0)" d="M 880.388 898.339 C 882.057 899.093 883.446 900.037 884.945 901.084 C 885.578 905.217 882.086 910.517 881.207 914.694 C 879.734 921.69 881.16 929.07 879.063 935.941 C 876.553 934.508 875.168 933.464 874 930.719 C 869.964 921.23 876.392 907.033 880.388 898.339 z"/>
<path transform="translate(0,0)" fill="rgb(0,0,0)" d="M 704.229 1582.26 C 706.173 1582.9 707.379 1583.45 708.626 1585.15 C 715.326 1594.28 714.855 1617.27 713.521 1628.02 C 712.913 1627.52 712.186 1627.01 711.725 1626.34 C 708.709 1622.01 703.849 1588.12 704.229 1582.26 z"/>
<path transform="translate(0,0)" fill="rgb(0,0,0)" d="M 803.326 1006.22 C 804.339 1006.55 805.572 1006.62 806.176 1007.58 C 807.809 1010.17 809.653 1044.1 808.795 1047.67 C 806.584 1046.99 805.446 1046.95 804.11 1044.92 C 798.96 1037.09 800.449 1014.53 803.326 1006.22 z"/>
<path transform="translate(0,0)" fill="rgb(0,0,0)" d="M 1246.83 1872.56 C 1248.1 1872.87 1249.04 1873.08 1250.15 1873.88 C 1252.78 1875.8 1270.6 1896.96 1271.28 1899.59 C 1271.55 1900.64 1271.35 1901.76 1271.39 1902.84 L 1267.58 1902.69 C 1259.29 1898.11 1252.4 1888.79 1247.78 1880.72 C 1245.92 1877.47 1245.89 1876.17 1246.83 1872.56 z"/>
<path transform="translate(0,0)" fill="rgb(0,0,0)" d="M 1099.14 1834.45 L 1102.44 1835.52 C 1107.92 1841.04 1128.09 1865.4 1128.98 1872.19 C 1125.56 1871.32 1123.3 1870.2 1120.63 1867.86 C 1112.38 1860.64 1099.84 1845.64 1099.14 1834.45 z"/>
<path transform="translate(0,0)" fill="rgb(0,0,0)" d="M 950.056 1756.52 C 951.33 1757 952.057 1757.02 952.905 1758.17 C 958.346 1765.57 962.259 1780.32 966.388 1789.1 C 967.871 1792.25 972.847 1799.89 973.028 1803 C 973.098 1804.2 972.783 1805.39 972.661 1806.59 C 970.543 1805.81 969.229 1805.05 967.894 1803.18 C 960.567 1792.9 947.881 1769.47 950.056 1756.52 z"/>
<path transform="translate(0,0)" fill="rgb(0,0,0)" d="M 1289.38 1871.22 C 1290.5 1871.7 1291.52 1872.12 1292.45 1872.94 C 1297.83 1877.67 1319.37 1900.62 1320.25 1906.41 C 1319.12 1906.36 1318.33 1906.36 1317.19 1906.12 C 1309.68 1904.51 1297.91 1891.07 1293.42 1884.84 C 1289.87 1879.91 1288.35 1877.29 1289.38 1871.22 z"/>
<path transform="translate(0,0)" fill="rgb(0,0,0)" d="M 675.426 1524.47 C 677.203 1524.63 680.2 1524.61 681.496 1525.85 C 688.498 1532.58 689.991 1574.14 690.975 1584.76 L 688.518 1583.94 C 682.712 1578.27 681.277 1547.64 679.407 1537.8 C 678.533 1533.2 677.046 1528.86 675.426 1524.47 z"/>
<path transform="translate(0,0)" fill="rgb(249,241,202)" d="M 2048 1008.23 L 2048 2048 L 0 2048 L 0 1043.96 C 24.6977 1043.93 49.5081 1042.15 74.1733 1040.97 C 95.1755 1039.96 115.932 1039.75 136.809 1036.95 C 140.378 1053.26 145.547 1069.16 150.458 1085.11 C 137.381 1129.91 116.608 1207.06 139.657 1249.6 C 150.86 1270.28 171.011 1282.86 193.149 1289.18 C 211.167 1294.33 229.198 1295.33 247.832 1295.28 C 249.279 1318.05 303.139 1374.78 321.543 1391.04 C 350.1 1416.25 382.804 1434.7 417.396 1450.28 C 425.16 1453.78 453.261 1463.45 456.943 1469.24 A 19077.1 19077.1 0 0 0 146.527 1606.28 L 80.4787 1636.06 C 70.0131 1640.67 58.4538 1644.57 48.5609 1650.28 C 45.6714 1651.95 43.271 1653.91 41.8946 1657.04 C 37.3946 1667.27 42.1117 1680.99 46.39 1690.66 C 60.5399 1722.65 83.5479 1751.27 106.166 1777.64 A 600.04 600.04 0 0 0 132.976 1805.99 C 208.771 1881.48 307.413 1928.13 412.038 1947.58 C 440.897 1952.95 470.47 1956.87 499.876 1956.77 A 550.211 550.211 0 0 0 602.453 1947.23 C 676.621 1932.54 765.33 1894.89 826.375 1849.98 C 851.234 1831.69 873.338 1810.37 895.031 1788.51 C 915.266 1799.38 934.314 1812.86 954.48 1824.05 A 1103.34 1103.34 0 0 0 1102.5 1890.9 C 1141.87 1905.04 1183.34 1915.38 1224.33 1923.56 C 1332.46 1945.17 1441.52 1949.88 1549.48 1924.27 C 1569.7 1919.47 1588.08 1911.79 1607.74 1905.47 C 1619.65 1901.65 1631.92 1898.96 1643.86 1895.18 C 1663 1889.11 1681.5 1880.99 1699.61 1872.38 C 1809.59 1820.09 1898.87 1719.81 1939.69 1605.45 A 506.294 506.294 0 0 0 1951.58 1569.03 A 536.69 536.69 0 0 0 1971.7 1438.6 C 1974.89 1340.63 1951.32 1224.88 1917.24 1133.49 A 858.767 858.767 0 0 0 1863.03 1017.93 A 4389.51 4389.51 0 0 1 1970.75 1012.7 C 1996.14 1011.72 2022.94 1012.44 2048 1008.23 z"/>
<path transform="translate(0,0)" fill="rgb(225,214,170)" d="M 1939.69 1605.45 C 1955.16 1613.06 1984.85 1658.45 1990.35 1674.9 C 2000.05 1703.96 1995.35 1736.26 1981.64 1763.15 C 1939.9 1845.03 1825.26 1895.29 1742.02 1921.77 C 1720.69 1928.56 1698.75 1933.88 1677.01 1939.21 C 1519.49 1977.85 1354.29 1985.32 1192.81 1974.68 C 1135.49 1970.9 1078.67 1965.15 1022.2 1954.43 C 986.953 1947.74 933.48 1936.7 901.295 1922.52 C 867.311 1934.11 833.559 1945.33 798.513 1953.38 C 614.989 1995.53 358.768 1999.9 186.524 1915.35 C 152.548 1898.68 112.72 1872.02 100.039 1834.26 C 91.3487 1808.37 98.4014 1800.35 106.166 1777.64 A 600.04 600.04 0 0 0 132.976 1805.99 C 208.771 1881.48 307.413 1928.13 412.038 1947.58 C 440.897 1952.95 470.47 1956.87 499.876 1956.77 A 550.211 550.211 0 0 0 602.453 1947.23 C 676.621 1932.54 765.33 1894.89 826.375 1849.98 C 851.234 1831.69 873.338 1810.37 895.031 1788.51 C 915.266 1799.38 934.314 1812.86 954.48 1824.05 A 1103.34 1103.34 0 0 0 1102.5 1890.9 C 1141.87 1905.04 1183.34 1915.38 1224.33 1923.56 C 1332.46 1945.17 1441.52 1949.88 1549.48 1924.27 C 1569.7 1919.47 1588.08 1911.79 1607.74 1905.47 C 1619.65 1901.65 1631.92 1898.96 1643.86 1895.18 C 1663 1889.11 1681.5 1880.99 1699.61 1872.38 C 1809.59 1820.09 1898.87 1719.81 1939.69 1605.45 z"/>
<path transform="translate(0,0)" fill="rgb(254,253,242)" d="M 0 0 L 2048 0 L 2048 1008.23 C 2022.94 1012.44 1996.14 1011.72 1970.75 1012.7 A 4389.51 4389.51 0 0 0 1863.03 1017.93 C 1807.96 917.105 1727.97 826.184 1637.82 755.311 A 685.26 685.26 0 0 0 1594.06 723.53 C 1584.02 716.75 1573.39 710.319 1563.79 702.956 C 1578.84 642.014 1582.14 580.932 1578.04 518.44 C 1576.82 499.851 1571.34 472.981 1571.86 456.136 C 1572.28 442.6 1579 429.217 1582.85 416.366 C 1593.9 379.415 1605.92 320.698 1585.21 285.754 C 1568.76 258.002 1530.29 242.577 1500.56 235.196 C 1482.52 230.72 1461.5 229.355 1444.58 221.737 C 1428.5 214.497 1407.93 195.06 1392.25 184.567 C 1361.2 163.79 1326.86 146.535 1292.76 131.346 C 1086.4 39.432 857.419 61.9932 657.471 158.753 C 630.925 171.599 604.734 185.002 579.525 200.344 C 364.643 331.119 206.212 512.172 145.97 760.303 C 124.252 849.758 113.643 946.567 136.809 1036.95 C 115.932 1039.75 95.1755 1039.96 74.1733 1040.97 C 49.5081 1042.15 24.6977 1043.93 0 1043.96 L 0 0 z"/>
<path transform="translate(0,0)" fill="rgb(205,184,65)" d="M 1299.63 641.417 C 1299.7 641.411 1299.76 641.401 1299.83 641.398 C 1429.56 634.027 1551.45 696.157 1648.78 777.16 C 1681.67 804.526 1711.61 834.196 1740.45 865.772 C 1771.38 899.631 1800.74 935.508 1826.02 973.836 C 1903.17 1090.81 1947.24 1228.11 1959.9 1367.18 C 1971.66 1496.4 1940.33 1634.27 1855.76 1735.37 C 1772.37 1835.06 1670.29 1893.26 1540.03 1904.88 C 1508.43 1905.69 1476.07 1904.82 1444.79 1900 C 1336.97 1883.42 1230.3 1827.32 1148.29 1756.55 C 1118.96 1731.23 1093.18 1703.37 1068.48 1673.57 A 856.681 856.681 0 0 1 875.575 1191.63 C 867.788 1085.34 880.196 960.001 931.29 864.612 C 944.242 840.431 961.938 816.629 979.901 795.895 C 1061.57 701.631 1176.39 650.229 1299.63 641.417 z"/>
<path transform="translate(0,0)" fill="rgb(0,0,0)" d="M 1296.64 660.43 C 1377.35 655.955 1462.83 679.445 1533.44 717.913 C 1580 743.284 1623.97 776.645 1663.76 811.537 C 1826.83 954.547 1932.54 1171.75 1946.47 1388.08 C 1954.83 1517.86 1917.82 1640.83 1831.23 1738.92 C 1757.2 1822.78 1656.14 1881.02 1543.25 1887.91 A 227.177 227.177 0 0 1 1536.92 1888.33 C 1507.68 1889.92 1477.5 1888.84 1448.6 1884.06 C 1341.2 1866.28 1221 1802.19 1140.43 1729.85 C 1104.57 1697.65 1074.56 1660.41 1046.68 1621.24 C 954.612 1491.88 899.486 1343.09 891.013 1184.19 C 885.081 1072.95 897.732 959.866 954.754 862.027 C 966.772 841.406 979.866 821.778 995.89 803.996 C 1075.56 715.584 1178.13 666.775 1296.64 660.43 z"/>
<path transform="translate(0,0)" fill="rgb(254,253,242)" d="M 1295.39 667.413 C 1295.47 667.406 1295.54 667.395 1295.62 667.391 C 1433.24 659.681 1558.1 728.34 1658.12 817.175 A 852.659 852.659 0 0 1 1939.73 1394.45 C 1945.57 1492.56 1923.63 1593.99 1870.21 1677.31 C 1856.98 1697.94 1841.03 1717.61 1824.75 1735.91 C 1752.76 1816.85 1653.72 1874.48 1544.25 1880.89 C 1508.79 1882.5 1474.88 1881.88 1439.78 1875.65 C 1344.86 1858.8 1226.66 1796.15 1154.09 1733.47 C 1049.27 1642.93 959.726 1484.33 923.371 1351.15 A 813.278 813.278 0 0 1 897.758 1191.79 C 888.45 1057.45 910.196 912.716 1001.44 807.98 C 1051.07 751.004 1121.83 705.231 1194.47 684.028 C 1227.29 674.446 1261.35 669.74 1295.39 667.413 z"/>
<path transform="translate(0,0)" fill="rgb(0,0,0)" d="M 1424.3 1229.33 C 1430.63 1229.47 1436.97 1230.16 1442.89 1232.58 C 1454.43 1237.31 1463.08 1247.11 1467.47 1258.68 C 1472.6 1272.2 1472.27 1289.14 1466.11 1302.26 C 1460.46 1314.31 1451.48 1320.24 1439.46 1324.66 C 1429.34 1325.74 1420.85 1324.84 1412.38 1318.54 C 1400.76 1309.89 1395.24 1295.04 1393.01 1281.18 C 1390.87 1267.86 1391.34 1252.05 1399.87 1240.94 C 1406.4 1232.44 1414.26 1230.56 1424.3 1229.33 z"/>
<path transform="translate(0,0)" fill="rgb(254,253,242)" d="M 1416.08 1237.16 C 1421.42 1236.82 1426.71 1236.45 1432.01 1237.42 A 37.9989 37.9989 0 0 1 1457.33 1254.3 C 1464.04 1264.7 1465.54 1278.65 1462.69 1290.57 C 1460.08 1301.47 1454.01 1308.85 1444.56 1314.53 C 1438.64 1316.92 1432.24 1318.1 1425.94 1316.55 C 1417.86 1314.56 1411.62 1308.85 1407.37 1301.87 C 1399.75 1289.36 1396.46 1270.51 1400.53 1256.35 C 1403.18 1247.11 1407.69 1241.65 1416.08 1237.16 z"/>
<path transform="translate(0,0)" fill="rgb(0,0,0)" d="M 1723.31 977.265 C 1735.19 976.498 1744.95 977.931 1754.78 985.35 C 1795.13 1015.81 1864.57 1151.58 1870.22 1204.67 C 1871.18 1213.71 1869.83 1222.02 1863.73 1229.01 C 1859.42 1233.94 1854.2 1237.33 1847.81 1238.84 C 1825.86 1244.03 1801 1242.92 1778.46 1245.68 C 1731.49 1251.43 1685.04 1260 1637.84 1264.19 C 1610.18 1267.24 1533.57 1273.8 1508.41 1263.8 C 1502.97 1261.64 1497.39 1258.04 1495.24 1252.33 C 1492.9 1246.14 1495.09 1239.78 1497.9 1234.16 C 1507.25 1215.43 1523.81 1197.95 1537.29 1182.05 L 1583.66 1127.45 C 1621.43 1082.56 1660.36 1029.13 1703.14 989.502 C 1709.21 983.881 1715.38 979.831 1723.31 977.265 z"/>
<path transform="translate(0,0)" fill="rgb(254,234,121)" d="M 1725.2 985.163 C 1735.12 984.254 1740.39 985.365 1748.64 991.261 C 1767.78 1004.94 1781.47 1028.97 1793.64 1048.68 C 1819.62 1090.75 1854.47 1153.35 1862.14 1202.7 C 1863.12 1208.99 1863.54 1217.78 1859.26 1223.07 C 1855.36 1227.89 1848.85 1230.74 1842.95 1232.1 C 1824.53 1236.35 1798.37 1235.7 1778.57 1238.06 C 1730.23 1243.82 1682.34 1252.22 1633.76 1256.28 C 1604.77 1259.07 1539.68 1266.12 1513.65 1257.86 C 1509.17 1256.45 1504.68 1254.29 1502.71 1249.76 C 1501.37 1246.68 1502.43 1243.09 1503.59 1240.11 C 1505.96 1234.02 1509.86 1228.54 1513.75 1223.33 C 1539.38 1189.01 1568.93 1157.05 1596.4 1124.14 C 1629.64 1084.33 1664.69 1038.81 1701.16 1002.68 C 1708.57 995.333 1715.54 989.315 1725.2 985.163 z"/>
<path transform="translate(0,0)" fill="rgb(254,253,242)" d="M 1798.23 1182.36 C 1802.97 1181.49 1818.58 1177.23 1822.11 1179.51 C 1820.07 1184.84 1810.45 1189.39 1805.34 1191.67 C 1793.37 1197.03 1780.48 1201.72 1767.21 1199.41 L 1764.85 1197.43 C 1776.12 1192.86 1787.18 1187.45 1798.23 1182.36 z"/>
<path transform="translate(0,0)" fill="rgb(0,0,0)" d="M 1655.28 1220.4 C 1671.52 1215.66 1688.83 1213.34 1705.41 1209.94 C 1721.71 1206.6 1737.57 1202.07 1753.38 1196.91 C 1764.91 1193.16 1787.39 1181.63 1798.23 1182.36 C 1787.18 1187.45 1776.12 1192.86 1764.85 1197.43 C 1730.52 1209.69 1691.97 1220.75 1655.28 1220.4 z"/>
<path transform="translate(0,0)" fill="rgb(254,253,242)" d="M 1726.84 1059.95 L 1726.81 1061.67 C 1711.11 1084.76 1680.85 1109.63 1659.92 1128.45 C 1650.74 1136.7 1642 1145.39 1632.72 1153.53 C 1632.32 1151.96 1632.39 1151.31 1632.59 1149.74 C 1653.26 1120.64 1696.57 1079.21 1726.84 1059.95 z"/>
<path transform="translate(0,0)" fill="rgb(254,253,242)" d="M 1772.52 1112.27 L 1773.67 1112.63 C 1771.75 1117.31 1752.93 1122.27 1747.89 1124.94 C 1732.62 1133.02 1716.45 1139.38 1701.25 1147.65 C 1683.18 1157.48 1665.61 1168.48 1647.68 1178.6 C 1612.58 1198.41 1576.06 1217.69 1539.64 1234.92 C 1538.87 1234.67 1539.36 1234.91 1538.56 1233.69 C 1546.05 1225.71 1557.65 1219.19 1566.72 1212.98 C 1619.97 1176.51 1710.19 1125.79 1772.52 1112.27 z"/>
<path transform="translate(0,0)" fill="rgb(0,0,0)" d="M 1794.54 1269.41 C 1816.65 1266.99 1843.96 1266.77 1864 1277.63 C 1880.3 1286.47 1888.04 1301.36 1892.93 1318.48 C 1907.7 1370.12 1905.48 1437.67 1895.28 1489.97 C 1893.39 1499.68 1891.4 1512.38 1886.21 1520.99 A 20.8062 20.8062 0 0 1 1872.31 1530.77 C 1834.07 1538.35 1725.32 1466.52 1691.56 1444.8 A 3527.2 3527.2 0 0 1 1567.15 1367.64 C 1549.69 1356.28 1499.03 1327.63 1495.37 1306.94 C 1494.59 1302.53 1495.5 1297.94 1498.35 1294.42 C 1503.97 1287.49 1516.13 1286.41 1524.49 1285.35 C 1543.01 1283.02 1561.98 1283.26 1580.62 1282.88 A 1830.36 1830.36 0 0 0 1629.61 1280.94 C 1650.87 1279.95 1672.02 1277.91 1693.24 1276.42 L 1794.54 1269.41 z"/>
<path transform="translate(0,0)" fill="rgb(254,234,121)" d="M 1794.84 1277.58 C 1815.88 1275.78 1841.11 1274.69 1860.22 1284.99 C 1873.52 1292.17 1880.79 1306.91 1885.12 1320.81 C 1899.98 1368.61 1897.42 1434.28 1888.34 1483.14 C 1886.47 1493.23 1884.77 1504.92 1879.75 1513.95 C 1877.67 1517.7 1874.22 1522.03 1869.79 1523.02 C 1838.16 1530.11 1721.39 1454.02 1691.61 1435.61 A 4929.3 4929.3 0 0 1 1574.62 1363.6 C 1561.25 1355.04 1504.43 1319.84 1502.92 1306.04 C 1502.62 1303.34 1503.51 1301.19 1505.27 1299.2 C 1508.93 1295.04 1516.94 1293.83 1522.2 1293.22 C 1539.01 1291.27 1556.39 1291.47 1573.3 1291.05 A 2742.08 2742.08 0 0 0 1631.61 1288.72 C 1685.99 1286.19 1740.52 1281.37 1794.84 1277.58 z"/>
<path transform="translate(0,0)" fill="rgb(0,0,0)" d="M 1738.44 1302.41 C 1755.2 1301.35 1777.57 1300.84 1793.34 1307.12 L 1764.4 1306.41 A 860.307 860.307 0 0 1 1704.79 1306.75 C 1714.31 1302.89 1728.14 1303.27 1738.44 1302.41 z"/>
<path transform="translate(0,0)" fill="rgb(0,0,0)" d="M 1716.07 1350.28 C 1738.48 1350.95 1760.22 1355.49 1782.84 1355.01 C 1793.82 1354.78 1813.3 1349.64 1822.34 1351.31 L 1821.7 1352.44 L 1819.54 1353.04 C 1791.59 1360.69 1764.74 1361.41 1736.3 1356.09 C 1729.55 1354.83 1722.09 1353.72 1716.07 1350.28 z"/>
<path transform="translate(0,0)" fill="rgb(0,0,0)" d="M 1736.28 1391.92 C 1749.32 1393.57 1769.66 1405.07 1782.46 1410.16 C 1802.77 1418.24 1823.03 1424.86 1844.32 1429.8 C 1844.03 1429.86 1843.74 1429.93 1843.45 1429.97 C 1815.67 1434.49 1758.78 1408.63 1736.28 1391.92 z"/>
<path transform="translate(0,0)" fill="rgb(254,253,242)" d="M 1552.47 1320.33 C 1584.91 1323.53 1616.54 1338.55 1647.03 1349.08 C 1655.65 1352.06 1674.95 1356.1 1681.28 1362.11 C 1673.9 1362.12 1665.83 1359.98 1658.68 1358.26 C 1631.26 1351.69 1605.71 1340.5 1579.22 1331.18 C 1572.15 1328.7 1559.31 1326.08 1553.68 1322.29 C 1553.04 1321.86 1552.87 1320.98 1552.47 1320.33 z"/>
<path transform="translate(0,0)" fill="rgb(0,0,0)" d="M 1476.7 1334.65 C 1483.25 1334.42 1486.75 1335.78 1492.32 1339.13 C 1509 1349.14 1524.66 1361.52 1541.08 1372.07 C 1585.57 1400.68 1630.62 1428.7 1675.62 1456.51 C 1704.79 1474.53 1734.03 1492.56 1763.54 1510.03 C 1784.37 1522.37 1808.16 1532.78 1825.98 1549.33 C 1838.88 1561.3 1846.55 1574.93 1847.11 1592.77 C 1848.24 1628.75 1808.24 1673.48 1784.47 1699.03 C 1762.29 1721.08 1723.03 1752.72 1691.07 1757.41 C 1683.28 1758.55 1675.56 1758.16 1669.12 1753.18 C 1657.12 1743.9 1629.61 1670.37 1620.73 1651.86 A 7203.32 7203.32 0 0 0 1542.87 1496.79 C 1529.4 1470.59 1515.19 1444.69 1502.6 1418.06 C 1495.52 1403.06 1474.3 1360.19 1473.08 1345.38 C 1472.69 1340.67 1473.73 1338.25 1476.7 1334.65 z"/>
<path transform="translate(0,0)" fill="rgb(254,234,121)" d="M 1479.96 1343.13 C 1489.77 1345.48 1562.3 1394.81 1577.13 1404.22 A 9164.92 9164.92 0 0 0 1736.33 1502.46 C 1760.2 1516.93 1800.3 1537.36 1819.71 1555.01 C 1831.2 1565.47 1838.34 1577.53 1838.78 1593.47 C 1839.68 1626.37 1802.23 1667.8 1780.52 1691.09 C 1759.29 1713.07 1723.95 1742.33 1693.35 1748.75 C 1687.68 1749.95 1679.22 1750.94 1674.19 1747.25 C 1670.89 1744.83 1668.45 1740.65 1666.59 1737.1 C 1660.38 1725.25 1655.82 1712.04 1650.54 1699.72 A 2056.18 2056.18 0 0 0 1619.6 1630.78 C 1596.46 1581.53 1571.25 1532.91 1546.07 1484.67 C 1529.33 1452.59 1512.73 1421.04 1497.63 1388.13 C 1491.13 1373.97 1483.09 1358.45 1479.96 1343.13 z"/>
<path transform="translate(0,0)" fill="rgb(0,0,0)" d="M 1655.86 1555.77 C 1656.77 1556.19 1657.11 1556.3 1658.02 1556.97 C 1667.75 1564.21 1720.12 1619.32 1721.52 1627.6 C 1720.85 1627.67 1720.19 1627.86 1719.52 1627.82 C 1715.51 1627.62 1661.23 1563.28 1655.86 1555.77 z"/>
<path transform="translate(0,0)" fill="rgb(0,0,0)" d="M 1648.58 1505.73 C 1662.22 1509.31 1701.74 1535.65 1717.69 1544.19 C 1723.49 1547.3 1748.62 1558.14 1751.51 1561.26 C 1752.25 1562.06 1752.63 1563.12 1753.19 1564.06 C 1752.59 1564.17 1752 1564.33 1751.4 1564.4 C 1735.05 1566.08 1662.45 1517.02 1648.58 1505.73 z"/>
<path transform="translate(0,0)" fill="rgb(254,253,242)" d="M 1579.6 1471.58 C 1580.59 1471.92 1580.85 1471.94 1581.78 1472.69 C 1586.6 1476.54 1591.46 1486.05 1594.98 1491.35 C 1605.44 1507.14 1614.74 1523.34 1624.55 1539.5 C 1647.95 1578.05 1671.19 1617.53 1688.48 1659.28 C 1693.48 1671.34 1696.2 1682.54 1698.02 1695.45 C 1697.61 1695.17 1697.17 1694.94 1696.81 1694.62 C 1691.31 1689.83 1680.66 1664.02 1676.33 1656.04 C 1646.43 1600.93 1615.07 1546.28 1586.98 1490.21 C 1584 1484.26 1580.55 1478.24 1579.6 1471.58 z"/>
<path transform="translate(0,0)" fill="rgb(0,0,0)" d="M 1474.86 775.193 C 1479.44 774.796 1483.82 774.772 1488.34 775.731 C 1518.46 782.127 1589.07 820.803 1615.09 839.218 C 1640.7 857.353 1694.43 896.746 1699.14 928.858 C 1700.43 937.676 1697.89 946.369 1693.66 954.062 C 1686.21 967.591 1674.76 979.305 1665.53 991.681 C 1631.84 1036.86 1595.7 1080.11 1562.18 1125.47 A 6971.85 6971.85 0 0 1 1516.67 1183.93 C 1507.26 1195.87 1497.62 1210.09 1485.95 1219.87 C 1480.65 1224.31 1474.41 1226.25 1467.51 1225.37 C 1460.66 1224.5 1454.54 1220.99 1450.48 1215.4 C 1441.94 1203.65 1440.59 1185.44 1440.07 1171.42 C 1439.15 1146.49 1441.7 1120.93 1443.06 1096 C 1446.39 1035.25 1451.97 974.804 1456.55 914.155 L 1462.2 836.81 C 1463.21 820.759 1462.8 803.177 1465.98 787.434 C 1467.19 781.448 1469.82 778.484 1474.86 775.193 z"/>
<path transform="translate(0,0)" fill="rgb(254,234,121)" d="M 1479.72 783.014 C 1512.89 784.763 1597.6 835.513 1626.37 857.147 C 1645.97 871.881 1688.18 906.476 1691.1 931.973 C 1692.04 940.202 1688.49 947.381 1684.34 954.23 C 1678.75 963.463 1671.07 971.792 1664.28 980.159 C 1656.52 989.702 1649.12 999.505 1641.59 1009.22 L 1557.78 1118.81 C 1540.95 1139.68 1524.96 1161.32 1508.29 1182.35 C 1499.84 1193.02 1490.94 1206.14 1480.21 1214.55 C 1476.22 1217.67 1472.46 1218.83 1467.4 1217.95 C 1462.03 1217.02 1457.99 1213.31 1455.2 1208.8 C 1447.82 1196.87 1447.25 1179.19 1447.1 1165.61 C 1446.83 1141.07 1449.17 1116.19 1450.62 1091.69 C 1454.56 1024.97 1461.12 958.555 1466.4 891.942 A 4493.31 4493.31 0 0 0 1471.18 824.188 C 1471.85 813.327 1471.01 801.62 1473.54 791.001 C 1474.54 786.779 1476.09 785.231 1479.72 783.014 z"/>
<path transform="translate(0,0)" fill="rgb(254,253,242)" d="M 1493.37 1018.74 L 1494.75 1020.54 C 1497.52 1036.42 1488.38 1056.78 1482.67 1071.46 L 1481.31 1069.93 C 1480.68 1061.58 1489.96 1027.17 1493.37 1018.74 z"/>
<path transform="translate(0,0)" fill="rgb(254,253,242)" d="M 1507.74 1092.88 L 1508.58 1094.47 C 1506.56 1102.28 1502.43 1109.97 1499.47 1117.52 C 1492.28 1135.87 1486.3 1157.28 1476.43 1174.16 L 1475.61 1173.13 C 1476.25 1155.96 1497.8 1108.48 1507.74 1092.88 z"/>
<path transform="translate(0,0)" fill="rgb(0,0,0)" d="M 1562.21 967.136 C 1564.41 968.12 1564.67 968.034 1565.75 970.144 C 1563.07 982.499 1559.02 994.658 1555.53 1006.81 C 1551.55 1020.66 1547.95 1034.8 1543.12 1048.38 C 1541.23 1048.05 1542.22 1048.41 1540.29 1047.02 C 1538.93 1037.86 1558.24 980.522 1562.21 967.136 z"/>
<path transform="translate(0,0)" fill="rgb(0,0,0)" d="M 1511.95 868.559 L 1513.14 869.6 C 1515.34 878.224 1514.3 944.983 1513.7 957.482 C 1513.52 961.209 1513.17 961.993 1510.46 964.562 C 1504.87 953.711 1509.81 883.607 1511.95 868.559 z"/>
<path transform="translate(0,0)" fill="rgb(254,253,242)" d="M 1569.42 852.206 C 1571.16 852.698 1574.4 853.795 1575.19 855.564 C 1579.06 864.147 1563.19 927.795 1559.94 938.745 C 1559.49 940.649 1559.98 939.84 1558.41 941.134 C 1555.28 932.261 1567.82 867.377 1569.42 852.206 z"/>
<path transform="translate(0,0)" fill="rgb(254,253,242)" d="M 1538.53 949.744 L 1539.4 950.658 C 1540.27 956.947 1503.34 1075.51 1497.76 1092.14 C 1493.46 1104.94 1488.79 1117.73 1483.34 1130.09 L 1483.06 1129.78 L 1483.66 1129.22 L 1482.23 1127.93 L 1483.15 1129.7 L 1482.24 1128.61 C 1486.43 1105.36 1492.06 1081.59 1499.71 1059.24 C 1504.94 1043.97 1511.44 1029.14 1516.25 1013.72 C 1522.72 992.981 1525.37 967.296 1538.53 949.744 z"/>
<path transform="translate(0,0)" fill="rgb(254,253,242)" d="M 1618.15 913.64 C 1620.17 914.272 1619.28 913.703 1620.73 915.463 C 1620.62 924.392 1608.82 940.408 1605.79 950.376 C 1620.06 938.827 1630.59 923.482 1645.8 912.69 C 1637.92 926.048 1628.12 938.129 1620.27 951.394 C 1611.34 961.236 1603.88 978.931 1594.41 987.129 C 1592.54 988.75 1591.43 988.999 1589.05 988.752 L 1587.88 986.829 C 1585.95 966.401 1606.76 930.006 1618.15 913.64 z"/>
<path transform="translate(0,0)" fill="rgb(0,0,0)" d="M 1427.1 1337.94 C 1431.75 1337.66 1435.71 1338.09 1439.86 1340.42 C 1450.68 1346.51 1458.51 1359.54 1464.49 1370.02 C 1490.02 1414.71 1507.72 1464.55 1528.74 1511.47 C 1552.96 1565.51 1579.03 1618.57 1600.6 1673.79 C 1608.23 1693.34 1616.1 1712.93 1621.54 1733.23 C 1624.97 1746.06 1628.94 1763.03 1621.57 1775.11 C 1609.2 1795.38 1577.32 1805.51 1555.74 1810.76 C 1514.12 1817.84 1472.22 1813.6 1431.53 1803.3 C 1408.79 1797.55 1381.29 1788.72 1368.87 1766.99 C 1361.96 1754.89 1362.02 1742.33 1363.08 1728.92 C 1367.88 1668.04 1385.18 1608.34 1393.25 1547.8 C 1399.9 1497.88 1401.17 1447.26 1407.2 1397.22 C 1408.89 1383.19 1409.55 1367.34 1413.69 1353.9 C 1416.31 1345.41 1419.28 1342.04 1427.1 1337.94 z"/>
<path transform="translate(0,0)" fill="rgb(254,234,121)" d="M 1426.94 1345.89 C 1429.76 1345.72 1432.25 1345.52 1434.91 1346.72 C 1444.97 1351.26 1454.69 1369.12 1459.78 1378.31 C 1484.08 1422.21 1501.85 1470.73 1522.52 1516.45 C 1552.48 1582.73 1590.61 1656.17 1611.69 1725.41 C 1615.61 1738.28 1621.56 1758.48 1614.3 1771.02 C 1604.41 1788.08 1574.83 1797.22 1557.15 1802.09 A 226.16 226.16 0 0 1 1512.87 1806.47 C 1475.73 1806.46 1407.82 1797.66 1381.53 1770.3 C 1372.51 1760.92 1369.35 1751 1369.78 1738.14 C 1370.45 1718.13 1374.43 1697.38 1377.87 1677.69 C 1385.51 1634.01 1395.66 1590.74 1401.71 1546.78 C 1406.26 1513.7 1412.24 1365.9 1423.46 1349.68 C 1424.43 1348.27 1425.7 1347.05 1426.94 1345.89 z"/>
<path transform="translate(0,0)" fill="rgb(254,253,242)" d="M 1484.2 1552.5 C 1493.94 1564.84 1505.9 1599.95 1508 1616 L 1505.4 1619.07 C 1503.68 1619.07 1501.88 1618.76 1500.17 1618.58 C 1496.15 1596.37 1489.82 1574.36 1484.2 1552.5 z"/>
<path transform="translate(0,0)" fill="rgb(0,0,0)" d="M 1508 1616 C 1513.84 1628.74 1539.72 1689.19 1540.36 1699.64 L 1539.61 1700.74 C 1533.67 1695.68 1517.8 1652.66 1513.35 1642.31 C 1510.13 1634.68 1507.34 1627.12 1505.4 1619.07 L 1508 1616 z"/>
<path transform="translate(0,0)" fill="rgb(249,241,202)" d="M 1500.17 1618.58 C 1501.88 1618.76 1503.68 1619.07 1505.4 1619.07 C 1507.34 1627.12 1510.13 1634.68 1513.35 1642.31 C 1509.97 1656.26 1507.9 1667.47 1501.54 1680.68 C 1500.43 1659.97 1501.93 1639.36 1500.17 1618.58 z"/>
<path transform="translate(0,0)" fill="rgb(0,0,0)" d="M 1466.49 1641.34 L 1470.99 1642.32 C 1477.13 1649.73 1474.3 1714.48 1473.12 1727.86 C 1471.66 1728.2 1470.46 1728.15 1468.97 1728.12 C 1467.19 1724.24 1469.2 1688.73 1469.01 1680.32 C 1468.71 1667.3 1467.56 1654.31 1466.49 1641.34 z"/>
<path transform="translate(0,0)" fill="rgb(254,253,242)" d="M 1444.63 1432.4 L 1446.37 1433.83 C 1456.51 1459.16 1461.13 1582.32 1459.5 1614.71 C 1459.22 1614.55 1458.88 1614.47 1458.66 1614.22 C 1453.17 1608.03 1445.44 1450.3 1444.63 1432.4 z"/>
<path transform="translate(0,0)" fill="rgb(0,0,0)" d="M 1372.35 1332.27 C 1379.49 1331.97 1385.92 1331.75 1392.02 1336.18 C 1398 1340.52 1400.89 1347.51 1401.88 1354.64 C 1402.73 1360.8 1402.09 1367.03 1401.21 1373.15 C 1394.68 1418.59 1382.89 1464.04 1373.51 1509.02 C 1362.42 1562.13 1353.25 1616.42 1338.81 1668.71 C 1333.59 1687.59 1327.81 1712.96 1315.67 1728.37 C 1309.52 1736.18 1301.14 1742.19 1291.02 1743.08 C 1256.52 1746.1 1202.09 1704.07 1175.62 1682.94 C 1146.62 1657.93 1089.38 1599.55 1083.69 1562.44 C 1081.82 1550.27 1086.67 1540.93 1093.73 1531.43 C 1107.85 1512.44 1127.35 1494.98 1145.38 1479.7 C 1183.68 1447.27 1330.33 1338.62 1372.35 1332.27 z"/>
<path transform="translate(0,0)" fill="rgb(254,234,121)" d="M 1373.45 1340.19 C 1378.7 1339.97 1383.96 1339.45 1388.34 1342.92 C 1392.16 1345.95 1393.79 1350.65 1394.28 1355.35 C 1396.15 1373.2 1388.95 1395.53 1385.49 1413.12 A 6763.57 6763.57 0 0 1 1359.39 1537.44 C 1350.01 1581.29 1342.62 1626.03 1330.49 1669.22 C 1325.4 1687.32 1319.82 1710.74 1307.8 1725.4 C 1303.16 1731.07 1297.55 1734.61 1290.16 1735.14 C 1257.22 1737.53 1202.1 1694.41 1177.01 1673.36 C 1150.9 1649.01 1099.87 1599.31 1092.47 1564.2 C 1090.25 1553.65 1093.34 1546.16 1099.28 1537.5 C 1113.62 1516.6 1135.45 1497.87 1154.83 1481.63 C 1191.77 1450.67 1331.31 1348.14 1373.45 1340.19 z"/>
<path transform="translate(0,0)" fill="rgb(0,0,0)" d="M 1282.61 1554.75 C 1283.56 1550.84 1284.18 1547.18 1286.73 1543.93 L 1288.27 1543.7 C 1290.26 1548.82 1288.36 1554.24 1287.13 1559.34 L 1280.26 1591.83 C 1278.74 1600.15 1275.48 1633.8 1271.47 1638.25 C 1269.42 1635.9 1269.19 1632.33 1269.41 1629.36 A 48.3325 48.3325 0 0 1 1269.62 1627.27 C 1272.53 1602.81 1277.64 1578.85 1282.61 1554.75 z"/>
<path transform="translate(0,0)" fill="rgb(254,253,242)" d="M 1249.07 1701.96 A 101.875 101.875 0 0 1 1248.69 1699.94 C 1247.15 1691.04 1246.92 1682.45 1247.58 1673.46 C 1249.31 1649.79 1263.03 1574.96 1276.42 1557.65 C 1278.39 1555.1 1279.49 1555.09 1282.61 1554.75 C 1277.64 1578.85 1272.53 1602.81 1269.62 1627.27 C 1268.99 1627.44 1268 1627.67 1267.43 1627.95 C 1261.88 1630.69 1252.75 1690.31 1249.07 1701.96 z"/>
<path transform="translate(0,0)" fill="rgb(254,253,242)" d="M 1287.13 1559.34 C 1289.16 1557.87 1290.61 1556.68 1291.82 1554.44 C 1296.96 1544.85 1300.09 1532.72 1303.78 1522.42 L 1330.26 1447.3 C 1336.94 1428.31 1342.96 1407.34 1353.41 1390.11 C 1350.84 1404.07 1346.12 1417.73 1342.08 1431.33 C 1331.08 1468.3 1318.15 1503.92 1305.41 1540.25 C 1301.63 1551.03 1290.31 1590.63 1283.89 1595.84 C 1281.62 1594.74 1281.49 1594.55 1280.39 1592.21 C 1280.34 1592.09 1280.31 1591.96 1280.26 1591.83 L 1287.13 1559.34 z"/>
<path transform="translate(0,0)" fill="rgb(254,253,242)" d="M 1258.56 1464.8 C 1259.65 1465.87 1259.26 1465.17 1259.29 1467.11 C 1243.17 1489.38 1226.71 1511.57 1212.03 1534.82 C 1197.83 1557.32 1184.32 1582.86 1168.19 1603.86 C 1164.79 1608.29 1162.52 1611.2 1157.01 1612.72 C 1155.63 1610.95 1154.99 1609.83 1155.16 1607.49 C 1156.96 1581.77 1236.84 1483.69 1258.56 1464.8 z"/>
<path transform="translate(0,0)" fill="rgb(0,0,0)" d="M 1096.77 835.129 C 1101.27 834.584 1106.42 834.494 1110.91 835.336 C 1114.79 836.063 1118.57 837.49 1121.81 839.768 C 1135.9 849.681 1159.91 884.026 1170.7 899.271 C 1195.41 934.169 1218.15 970.764 1241.41 1006.64 C 1281.21 1068 1321.1 1129.53 1352.85 1195.59 C 1357.08 1204.38 1366.9 1219.38 1364.8 1229.28 C 1364.15 1232.35 1362.5 1235.67 1359.62 1237.21 C 1346.36 1244.34 1280.91 1217.06 1263.81 1210.95 C 1243.46 1203.73 1223.51 1195.36 1203.16 1188.1 C 1146.37 1167.82 1087.39 1148.38 1034.12 1119.94 C 1007.38 1105.66 976.518 1089.13 967.331 1058.08 C 955.902 1019.46 981.986 967.532 1000.46 934.291 C 1019.27 900.435 1059.04 845.838 1096.77 835.129 z"/>
<path transform="translate(0,0)" fill="rgb(254,234,121)" d="M 1100.86 843.219 C 1103.08 843.285 1105.32 843.345 1107.53 843.602 C 1111.19 844.027 1115.01 845.036 1118.06 847.162 C 1129.49 855.137 1143.57 876.17 1152.55 887.887 C 1180.7 924.662 1362.7 1202.48 1357.12 1228.04 C 1356.92 1228.96 1356.78 1229.08 1355.92 1229.55 C 1346.15 1235.04 1274.55 1206.4 1260.75 1201.39 C 1213.23 1183 1164.9 1166.75 1117.48 1148.11 C 1081.92 1134.12 1045.95 1119.37 1013.51 1098.96 C 996.249 1088.11 978.046 1074.27 973.637 1053.1 C 965.149 1012.35 997.012 951.855 1019.55 918.054 C 1036.61 892.473 1069.3 849.524 1100.86 843.219 z"/>
<path transform="translate(0,0)" fill="rgb(254,253,242)" d="M 1000.19 1003.66 C 1012.58 1007.45 1092.09 1069.11 1111 1082.47 C 1141.01 1103.68 1171.86 1124.85 1203.94 1142.76 C 1215.53 1149.23 1275.06 1176.35 1279.38 1183.12 C 1257.51 1177.52 1234.6 1167.6 1214.6 1157.16 C 1189.13 1143.86 1165.79 1127.36 1141.6 1112.02 C 1114.99 1095.15 1088.87 1078.07 1062.93 1060.18 C 1046.81 1049.06 1030.16 1038.04 1015.65 1024.82 C 1010.07 1019.74 1000.59 1011.56 1000.19 1003.66 z"/>
<path transform="translate(0,0)" fill="rgb(254,253,242)" d="M 1044.03 939.386 C 1046.19 939.812 1048.12 940.723 1049.94 941.944 C 1061.52 949.736 1072.04 962.316 1082.09 972.058 C 1103.23 992.556 1124.29 1013 1145.89 1033.02 C 1190.97 1074.77 1238.26 1113.91 1282.97 1156.06 C 1288.47 1161.25 1294.48 1165.86 1299.87 1171.14 C 1301.93 1173.15 1302.16 1173.28 1302.76 1176.03 C 1302.22 1176.01 1301.68 1176 1301.14 1175.97 C 1295.24 1175.57 1285.43 1167.34 1280.48 1163.98 C 1244.09 1139.31 1211.95 1110.43 1179.15 1081.3 C 1138.88 1045.55 1098.21 1008.43 1062.36 968.152 C 1058.24 963.527 1044.99 949.172 1043.79 943.446 C 1043.51 942.119 1043.95 940.74 1044.03 939.386 z"/>
<path transform="translate(0,0)" fill="rgb(0,0,0)" d="M 979.834 1172.23 C 1008.1 1170.79 1057.05 1181.92 1086.06 1187.71 C 1139.65 1198.42 1336.4 1242.14 1363.46 1285.04 C 1366.65 1290.11 1368.04 1295.97 1366.39 1301.82 C 1364.25 1309.43 1358.68 1315.96 1352.93 1321.2 C 1338.04 1334.78 1319.05 1345.06 1301.81 1355.38 L 1242.74 1390.63 C 1196.35 1420.21 1148.11 1449.57 1098.86 1474.07 C 1087.71 1479.62 1075.68 1486.32 1063.61 1489.46 C 1055 1491.71 1046.9 1491.15 1039.19 1486.42 C 1003.4 1464.41 975.842 1361.88 966.724 1322.44 C 960.134 1293.94 944.819 1207.44 960.628 1183.58 C 965.451 1176.3 971.563 1173.83 979.834 1172.23 z"/>
<path transform="translate(0,0)" fill="rgb(254,234,121)" d="M 983.674 1179.4 C 984.789 1179.45 985.887 1179.51 986.999 1179.6 C 1021.82 1182.44 1056.66 1190.32 1090.84 1197.4 C 1165.66 1212.89 1264.18 1233.69 1331.24 1269.73 C 1339.38 1274.11 1349.48 1279.21 1355.35 1286.57 C 1358.39 1290.38 1359.8 1294.85 1358.92 1299.69 C 1355.33 1319.37 1257.86 1372.51 1237.38 1384.65 C 1205.79 1404.32 1086.68 1477.89 1058.65 1482.43 C 1051.94 1483.52 1047 1482.79 1041.47 1478.76 C 1004.23 1451.56 972.695 1322.72 966.169 1276.44 C 963.347 1256.42 956.644 1200.97 968.713 1185.98 C 972.791 1180.92 977.518 1180.22 983.674 1179.4 z"/>
<path transform="translate(0,0)" fill="rgb(0,0,0)" d="M 1034.42 1211.92 C 1051 1215.08 1078.14 1227.5 1094.94 1233.59 C 1107.1 1238 1120.57 1241.02 1132.3 1246.38 C 1135.66 1247.92 1136.23 1248.52 1137.66 1251.96 C 1137.32 1251.96 1136.99 1251.99 1136.66 1251.98 C 1126.3 1251.37 1041.34 1218.87 1034.42 1211.92 z"/>
<path transform="translate(0,0)" fill="rgb(0,0,0)" d="M 1173.03 1361.24 L 1174.72 1361.33 L 1175.93 1362.89 L 1175.04 1364.5 C 1163.51 1370.46 1096.9 1383.65 1078.69 1387.79 L 1076.86 1387.22 L 1076.01 1385.53 C 1079.22 1381.39 1159.56 1364.31 1173.03 1361.24 z"/>
<path transform="translate(0,0)" fill="rgb(0,0,0)" d="M 1102.23 1285.25 C 1116.73 1284.12 1171.32 1297.83 1189.7 1300.81 C 1195.16 1301.7 1217.18 1302.98 1220.35 1304.98 C 1221.51 1305.72 1221.57 1307.59 1221.91 1308.85 C 1208.79 1312.03 1116.99 1292.32 1102.23 1285.25 z"/>
<path transform="translate(0,0)" fill="url(#Gradient1)" d="M 992.98 1287.14 C 993.812 1287.11 994.646 1287.05 995.479 1287.08 C 1014.03 1287.7 1035.99 1294.61 1054.61 1297.93 C 1076.39 1301.81 1099.74 1303.53 1121.11 1308.93 C 1124.52 1309.8 1125.96 1310.2 1128.32 1312.75 C 1099.63 1311.13 1019.74 1305.64 997.449 1292.66 C 994.623 1291.01 993.757 1290.31 992.98 1287.14 z"/>
<path transform="translate(0,0)" fill="rgb(254,253,242)" d="M 978.972 1233.66 C 991.424 1237.88 1005.5 1239.75 1018.33 1242.97 C 1042.79 1249.13 1067.05 1256.29 1091.71 1261.64 C 1098.55 1263.12 1116.64 1262.91 1121.12 1266.52 C 1092.78 1267.85 1001.54 1256.64 980.933 1239.6 C 978.705 1237.76 979.165 1236.34 978.972 1233.66 z"/>
<path transform="translate(0,0)" fill="rgb(0,0,0)" d="M 1288.36 736.419 C 1307.71 734.799 1328.27 736.392 1347.41 739.14 C 1369.36 742.29 1415.92 749.48 1428.81 767.853 C 1436.93 779.428 1437.14 793.127 1437.13 806.669 C 1437.11 836.348 1432.72 866.348 1430.03 895.901 A 2260.42 2260.42 0 0 0 1422.63 1011.03 A 1442.28 1442.28 0 0 0 1422.17 1097.98 C 1422.76 1126.79 1425.38 1159.13 1419.96 1187.54 C 1418.59 1194.73 1416.02 1205.58 1409.48 1209.7 C 1404.99 1212.52 1399.88 1213.09 1394.81 1211.72 C 1371.69 1205.49 1353.8 1171.81 1342.72 1152.45 C 1318.96 1108.53 1297.24 1063.5 1273.35 1019.62 A 1415.5 1415.5 0 0 0 1206.84 910.836 C 1192.55 889.952 1176.7 869.928 1161.41 849.765 C 1154.27 840.351 1146.33 831.025 1140.17 820.947 C 1137.19 816.061 1133.58 809.691 1133.29 803.913 C 1132.94 796.795 1136.5 789.1 1141.02 783.798 C 1148.38 775.187 1159.34 769.53 1169.4 764.742 C 1206.92 746.892 1247.16 739.084 1288.36 736.419 z"/>
<path transform="translate(0,0)" fill="rgb(254,234,121)" d="M 1277.69 745.408 C 1293.74 742.762 1314.33 744.323 1330.48 745.721 C 1352.16 747.598 1407.38 754.999 1420.69 771.694 C 1428.47 781.455 1429.31 793.775 1429.33 805.734 C 1429.39 835.605 1424.48 865.929 1421.75 895.667 C 1418.46 931.458 1416.8 967.596 1415.37 1003.5 A 1724.96 1724.96 0 0 0 1414.28 1103.7 C 1414.63 1127.69 1416.53 1152.58 1414.01 1176.44 C 1413.28 1183.43 1411.57 1198.12 1405.52 1202.41 C 1402.54 1204.53 1398.2 1204.54 1394.84 1203.55 C 1376.57 1198.12 1358.53 1165.39 1349.7 1149.42 C 1306.22 1064.57 1264.18 978.567 1209.53 900.132 C 1196.34 881.2 1182.07 863.193 1167.95 844.966 C 1161.17 836.215 1153.41 827.38 1147.66 817.934 C 1145.08 813.692 1142.73 809.145 1142.09 804.155 C 1141.38 798.686 1143.77 793.751 1147.14 789.57 C 1162.24 770.804 1211.35 756.554 1234.1 751.708 C 1248.54 748.631 1263.02 746.914 1277.69 745.408 z"/>
<path transform="translate(0,0)" fill="rgb(0,0,0)" d="M 1363.91 854.603 C 1365.95 856.898 1366.09 859.563 1366.46 862.472 C 1368.38 877.754 1368.6 893.565 1369.55 908.96 C 1371.49 940.091 1373.54 971.516 1377.36 1002.47 C 1379.37 1018.75 1384.44 1035.93 1384.82 1052.19 L 1382.45 1050.84 C 1372.52 1035.07 1360.1 874.67 1363.91 854.603 z"/>
<path transform="translate(0,0)" fill="rgb(254,253,242)" d="M 1215.29 795.304 C 1216.47 795.88 1217.58 796.431 1218.57 797.32 C 1227.89 805.694 1251.63 855.499 1259.91 869.818 C 1267.63 883.164 1276.96 895.925 1283.75 909.75 C 1288.3 919.017 1295.53 933.309 1295.74 943.642 C 1294.69 943.01 1293.74 942.448 1292.89 941.531 C 1286.86 934.957 1285.23 924.735 1280.72 917.185 C 1275.07 907.703 1267.59 899.065 1261.59 889.731 C 1250.79 872.927 1214.43 813.176 1215.29 795.304 z"/>
<path transform="translate(0,0)" fill="rgb(254,253,242)" d="M 1269.06 787.656 C 1269.62 788.014 1270.26 788.279 1270.76 788.731 C 1277.12 794.524 1318.64 917.351 1323.99 934.427 A 831.655 831.655 0 0 1 1336.04 978.447 C 1342.9 1006.78 1348.37 1034.27 1350.15 1063.43 C 1348.35 1061.95 1347.95 1060.12 1347.37 1057.91 C 1341.63 1036.28 1337.38 1014.8 1330.5 993.399 A 3530.86 3530.86 0 0 1 1285.62 846.067 C 1280.07 826.619 1273.6 807.376 1269.06 787.656 z"/>
<path transform="translate(0,0)" fill="rgb(254,234,121)" d="M 184.502 1143.56 L 184 1141.98 C 178.829 1125.97 170.692 1110.81 164.371 1095.22 C 156.508 1075.81 150.888 1055.38 146.125 1035.02 C 121.753 930.839 135.833 826.684 165.468 725.214 A 820.62 820.62 0 0 1 218.895 586.269 C 325.968 372.74 543.841 197.339 769.224 122.6 C 953.97 61.337 1145.8 66.1259 1321.21 154.557 C 1345.86 166.983 1370.88 180.641 1393.46 196.562 C 1408.21 206.965 1422.62 221.236 1438.5 229.401 C 1451.73 236.199 1470.55 238.041 1485.13 241.037 C 1522.46 248.709 1570.49 264.705 1583.51 305.059 C 1595.92 343.536 1577.73 403.464 1565.11 440.482 C 1562.48 426.46 1552.21 382.177 1541.98 374.663 C 1539.8 373.065 1538.06 373.037 1535.46 373.087 C 1534.39 375.027 1534.44 374.123 1534.97 376.176 C 1536.81 383.204 1543.42 391.546 1546.59 398.436 C 1551.31 408.724 1553.93 420.395 1556.64 431.368 C 1572.97 497.429 1576.91 634.073 1553.28 698.841 L 1532.05 687.366 C 1537.01 674.425 1550.56 638.08 1544.01 625.316 C 1543.7 624.719 1543.25 624.21 1542.87 623.657 C 1540.64 624.763 1540.19 626.373 1539.38 628.625 C 1536.75 635.965 1537.35 645.949 1536.11 653.807 C 1534.4 664.567 1531.36 675.161 1528.19 685.567 L 1511.15 676.761 C 1521.45 643.04 1528.27 611.412 1524.92 575.856 C 1524.52 571.657 1524.5 564.439 1522.33 560.833 C 1521.4 559.286 1521.82 559.82 1519.97 558.999 C 1516.91 563.727 1520.2 594.507 1519.9 603.115 C 1519.06 627.683 1512.67 651.387 1507.51 675.28 C 1474.63 659.97 1442.15 649.345 1406.7 641.713 C 1307.11 620.266 1221.38 635.994 1126.86 670.504 A 489.98 489.98 0 0 0 1022.99 721.786 C 1001.9 735.755 982.595 751.767 963.566 768.396 C 894.174 829.037 839.753 899.547 792.58 978.459 C 778.901 1001.34 765.322 1024.32 754.071 1048.51 A 909.759 909.759 0 0 0 678.708 1293.46 C 674.491 1320.28 672.423 1347.3 668.99 1374.19 L 668.343 1373.85 C 668.018 1370.86 668.258 1369.54 666.295 1367.2 C 657.62 1364.47 636.094 1365.95 626.393 1365.75 A 1193.28 1193.28 0 0 1 574.618 1363.71 C 478.773 1357.29 383.064 1321.73 301.19 1272.38 C 282.79 1287.34 241.43 1286.85 218.635 1284.42 C 195.243 1281.92 169.351 1273.37 154.309 1254.29 C 145.117 1242.63 135.782 1217.6 138.145 1202.86 C 138.473 1200.81 139.089 1200.37 140.519 1199.02 C 142.797 1198.81 144.938 1198.76 147.224 1198.85 L 148.11 1197.68 L 147.621 1195.53 C 145.025 1194.24 142.554 1194.54 139.748 1194.62 C 136.088 1189.56 140.553 1169.33 141.534 1162.72 C 143.346 1161.72 147.976 1159.78 148.878 1158.13 C 146.831 1157.88 145.539 1158.01 143.528 1158.29 C 142.213 1150.85 155.724 1098.81 158.511 1087.88 C 164.252 1106.03 172.689 1128.69 184.502 1143.56 z"/>
<path transform="translate(0,0)" fill="rgb(0,0,0)" d="M 152.846 1206.92 C 154.528 1207.67 156.952 1208.96 158.102 1210.46 C 159.957 1212.89 159.699 1213.97 159.461 1216.81 C 156.354 1216.33 153.579 1216.27 151.26 1213.91 C 150.921 1210.67 151.538 1209.82 152.846 1206.92 z"/>
<path transform="translate(0,0)" fill="rgb(0,0,0)" d="M 237.03 1232.95 C 238.786 1234.51 239.346 1235.22 239.85 1237.53 C 239.056 1240.43 236.648 1241.91 234.432 1243.74 C 232.506 1242.16 231.461 1241.26 230.566 1238.9 C 231.951 1235.86 234.324 1234.85 237.03 1232.95 z"/>
<path transform="translate(0,0)" fill="rgb(0,0,0)" d="M 263.14 963.253 C 265.519 964.119 266.458 965.107 268.099 967.007 C 268.554 970.597 268.063 971.495 266.772 974.768 C 263.699 974.302 262.765 973.854 260.891 971.512 C 260.481 968.322 261.837 966.054 263.14 963.253 z"/>
<path transform="translate(0,0)" fill="rgb(0,0,0)" d="M 195.395 1212.38 C 198.665 1212.56 200.874 1212.9 203.21 1215.35 C 204.307 1218.39 203.87 1220.47 203.331 1223.54 C 200.635 1223.07 199.312 1222.5 197.117 1220.86 C 195.355 1218.07 195.486 1215.56 195.395 1212.38 z"/>
<path transform="translate(0,0)" fill="rgb(0,0,0)" d="M 162.462 1149.47 C 165.344 1150.21 166.406 1151.06 168.523 1153.01 C 169.852 1156.09 169.814 1157.27 169.192 1160.57 C 168.185 1160.5 166.484 1160.42 165.545 1160.19 C 162.957 1159.55 162.37 1158.71 160.923 1156.69 C 160.713 1153.67 161.322 1152.19 162.462 1149.47 z"/>
<path transform="translate(0,0)" fill="rgb(0,0,0)" d="M 196.621 966.274 C 200.081 966.794 201.495 967.375 203.91 969.99 C 205.158 973.25 204.838 975.067 204.107 978.436 C 203.512 978.436 202.912 978.508 202.321 978.437 C 199.682 978.117 198.919 977.23 197.177 975.438 C 196.092 972.037 196.173 969.795 196.621 966.274 z"/>
<path transform="translate(0,0)" fill="rgb(0,0,0)" d="M 277.744 738.455 C 278.764 738.444 279.503 738.4 280.549 738.575 C 283.21 739.022 284.627 739.701 286.308 741.767 C 286.718 745.187 286.335 745.656 284.895 748.64 C 283.955 748.724 282.384 748.904 281.482 748.798 C 279.099 748.52 278.337 747.715 276.84 746.078 C 276.053 743.034 276.751 741.29 277.744 738.455 z"/>
<path transform="translate(0,0)" fill="rgb(0,0,0)" d="M 207.617 772.293 C 208.296 772.396 209.048 772.47 209.677 772.769 C 211.993 773.869 212.294 774.732 213.179 776.949 C 212.897 780.534 211.925 782.507 210.096 785.575 C 209.299 785.49 208.174 785.414 207.441 785.122 C 205.049 784.171 204.731 783.219 203.855 781.033 C 204.214 777.439 205.691 775.29 207.617 772.293 z"/>
<path transform="translate(0,0)" fill="rgb(0,0,0)" d="M 156.353 1174.38 C 157.382 1174.45 158.476 1174.48 159.469 1174.8 C 162.515 1175.79 168.169 1182.95 169.533 1185.75 C 165.863 1186.33 162.251 1187.05 159.132 1184.49 C 156.355 1182.2 156.489 1177.64 156.353 1174.38 z"/>
<path transform="translate(0,0)" fill="rgb(0,0,0)" d="M 1158.25 139.483 C 1161.96 139.721 1168.08 141.781 1170.94 144.26 C 1173.4 146.398 1173.03 147.206 1173.21 150.335 C 1169.38 150.092 1163.6 149.014 1160.67 146.324 C 1158.23 144.079 1158.37 142.67 1158.25 139.483 z"/>
<path transform="translate(0,0)" fill="rgb(0,0,0)" d="M 343.186 1145.46 C 344.162 1145.46 344.945 1145.43 345.929 1145.6 C 348.688 1146.07 352.313 1149.37 353.937 1151.54 C 355.883 1154.15 355.904 1154.44 355.543 1157.68 C 355.036 1157.7 354.529 1157.75 354.022 1157.73 C 350.504 1157.64 347.366 1156.23 345.121 1153.46 C 343.118 1151 343.008 1148.47 343.186 1145.46 z"/>
<path transform="translate(0,0)" fill="rgb(0,0,0)" d="M 1368.64 266.685 C 1372.15 268.31 1378.47 272.227 1380.51 275.51 C 1382.24 278.286 1381.76 279.001 1381.11 282.049 C 1380.66 281.935 1380.21 281.837 1379.77 281.706 C 1375.33 280.395 1369.75 275.596 1367.92 271.293 C 1367.14 269.461 1368.02 268.462 1368.64 266.685 z"/>
<path transform="translate(0,0)" fill="rgb(0,0,0)" d="M 408.557 1180.52 C 410.322 1180.53 411.557 1180.63 413.187 1181.38 C 417.984 1183.61 421.834 1186.42 423.687 1191.36 C 422.575 1191.58 421.46 1191.79 420.334 1191.9 C 417.207 1192.23 413.612 1191.69 411.326 1189.36 C 408.822 1186.8 408.783 1183.91 408.557 1180.52 z"/>
<path transform="translate(0,0)" fill="rgb(0,0,0)" d="M 1478.48 338.561 C 1482.43 339.881 1486.25 343.865 1488.64 347.202 C 1491.16 350.722 1491.74 352.864 1491.04 357.141 C 1487.03 355.76 1483.38 350.894 1480.92 347.539 C 1478.39 344.098 1477.87 342.865 1478.48 338.561 z"/>
<path transform="translate(0,0)" fill="rgb(0,0,0)" d="M 824.415 153.078 C 826.581 152.84 829.053 152.386 831.19 152.907 C 833.451 153.459 833.652 153.96 834.825 155.793 C 834.743 158.857 833.109 160.668 831.398 163.047 C 830.481 163.295 828.908 163.771 827.988 163.778 C 825.345 163.798 824.636 162.808 823.086 161.014 C 822.522 157.688 823.147 156.048 824.415 153.078 z"/>
<path transform="translate(0,0)" fill="rgb(0,0,0)" d="M 219.819 1197.5 C 224.204 1199.1 229.059 1200.78 232.66 1203.85 C 236.658 1207.27 237.766 1210.98 238.313 1216.04 C 237.399 1216.02 236.831 1216.05 235.901 1215.84 C 231.415 1214.81 222.861 1201.72 219.819 1197.5 z"/>
<path transform="translate(0,0)" fill="rgb(0,0,0)" d="M 1311.53 210.707 C 1316.51 212.603 1325.35 217.246 1328.36 221.594 C 1329.27 222.897 1328.56 224.167 1328.29 225.624 C 1322.66 223.953 1313.85 220.807 1311.09 215.186 C 1310.26 213.49 1311.05 212.42 1311.53 210.707 z"/>
<path transform="translate(0,0)" fill="rgb(0,0,0)" d="M 1175.77 173.105 C 1181.34 174.671 1189.15 174.683 1193.58 178.655 L 1193.65 181.411 C 1192.66 181.64 1192.17 181.781 1191.23 181.92 C 1186.07 182.678 1180.21 182.505 1175.92 179.332 C 1174.63 176.575 1175.07 176.124 1175.77 173.105 z"/>
<path transform="translate(0,0)" fill="rgb(0,0,0)" d="M 212.57 906.269 C 215.949 907.1 217.922 907.631 219.814 910.711 C 222.328 914.802 223.208 920.759 222.054 925.384 L 219.045 925.133 C 217.718 924.038 216.512 923.023 215.549 921.577 C 212.512 917.013 211.681 911.587 212.57 906.269 z"/>
<path transform="translate(0,0)" fill="rgb(0,0,0)" d="M 331.286 1041.31 C 335.34 1042.38 337.835 1044.2 340.148 1047.71 C 342.886 1051.86 343.522 1055.62 342.455 1060.41 C 339.177 1059.97 337.486 1059.78 335.376 1056.95 A 21.4953 21.4953 0 0 1 331.286 1041.31 z"/>
<path transform="translate(0,0)" fill="rgb(0,0,0)" d="M 521.261 1245.57 C 527.058 1246.45 535.473 1252.32 539.715 1256.39 C 541.944 1258.53 542.219 1259.45 542.308 1262.48 C 541.674 1262.55 541.044 1262.67 540.406 1262.7 C 535.727 1262.91 527.194 1255.28 523.937 1252.09 C 521.415 1249.62 521.194 1249.13 521.261 1245.57 z"/>
<path transform="translate(0,0)" fill="rgb(0,0,0)" d="M 941.178 130.269 C 947.371 129.625 962.699 128.58 968.329 130.649 C 969.937 131.24 970.131 132.685 970.845 134.12 C 963.926 136.061 955.285 137.043 948.215 135.422 C 944.43 134.553 943.209 133.55 941.178 130.269 z"/>
<path transform="translate(0,0)" fill="rgb(0,0,0)" d="M 1487.27 538.497 C 1487.78 538.599 1488.31 538.652 1488.8 538.802 C 1491.83 539.709 1493.04 542.172 1494.08 544.973 C 1495.91 549.899 1497.95 558.837 1495.73 563.735 C 1494.38 563.103 1492.71 562.247 1492.05 560.887 C 1489.36 555.36 1485.17 544.569 1487.27 538.497 z"/>
<path transform="translate(0,0)" fill="rgb(0,0,0)" d="M 1462.4 413.261 C 1463.89 413.655 1464.83 414.121 1466.17 414.852 C 1470.27 421.194 1475.36 431.965 1473.76 439.752 C 1471.76 439.178 1470.51 439.328 1469.26 437.573 C 1465.12 431.752 1461.39 420.312 1462.4 413.261 z"/>
<path transform="translate(0,0)" fill="rgb(0,0,0)" d="M 202.873 836.158 C 205.927 837.415 206.919 838.933 208.161 841.87 C 210.503 847.414 211.212 853.392 208.842 858.966 C 208.126 859.025 207.066 859.151 206.374 859.026 C 204.349 858.66 203.436 857.758 202.41 856.062 C 199.218 850.786 201.49 841.707 202.873 836.158 z"/>
<path transform="translate(0,0)" fill="rgb(0,0,0)" d="M 258.101 806.834 C 261.624 809.997 264.115 815.14 265.509 819.645 C 266.805 823.834 266.939 826.042 264.883 829.957 C 263.581 829.4 262.196 828.866 261.012 828.066 C 257.962 826.003 255.824 821.325 255.37 817.782 C 254.799 813.327 255.468 810.43 258.101 806.834 z"/>
<path transform="translate(0,0)" fill="rgb(0,0,0)" d="M 377.072 411.636 C 378.18 412.184 378.842 413.104 379.677 413.998 C 380.198 416.241 380.189 417.722 379.265 419.884 C 376.801 425.65 372.077 429.815 366.443 432.26 C 365.029 431.87 364.627 431.525 363.526 430.614 C 363.506 430.312 363.441 430.009 363.466 429.707 C 363.878 424.528 373.433 415.698 377.072 411.636 z"/>
<path transform="translate(0,0)" fill="rgb(0,0,0)" d="M 231.034 648.497 L 233.994 649.611 C 234.355 650.539 234.538 650.837 234.587 651.964 C 234.873 658.491 231.568 670.929 227.625 675.946 C 225.665 674.862 224.635 674.227 223.447 672.306 C 222.011 664.275 226.597 655.009 231.034 648.497 z"/>
<path transform="translate(0,0)" fill="rgb(0,0,0)" d="M 1039.08 172.416 C 1042.06 171.883 1046.58 172.37 1049.45 173.387 C 1051.88 174.249 1053.94 175.518 1055.03 177.915 L 1054.07 179.762 C 1050.47 181.628 1047.44 181.336 1043.46 181.21 C 1038.55 179.323 1031.1 180.008 1027.48 176.179 L 1027.88 174.699 C 1031.23 172.9 1035.35 172.84 1039.08 172.416 z"/>
<path transform="translate(0,0)" fill="rgb(0,0,0)" d="M 1569.99 367.404 C 1570.75 367.799 1571.23 367.999 1571.91 368.6 C 1573.33 369.857 1573.75 371.364 1573.92 373.167 C 1574.53 379.703 1573.29 390.431 1569.15 395.801 C 1567.22 394.543 1565.3 393.193 1564.73 390.884 C 1563.02 383.851 1566.51 373.546 1569.99 367.404 z"/>
<path transform="translate(0,0)" fill="rgb(0,0,0)" d="M 1409.23 388.368 L 1413 388.852 C 1414.43 389.743 1415.21 390.552 1416.22 391.908 C 1420.28 397.358 1426.5 407.262 1425.48 414.027 L 1422.46 413.875 C 1420.87 413.009 1419.93 412.178 1418.78 410.778 C 1413.93 404.882 1408.57 396.135 1409.23 388.368 z"/>
<path transform="translate(0,0)" fill="rgb(0,0,0)" d="M 653.867 1215.02 C 660.431 1217.37 675.362 1221.1 679.57 1226.58 C 680.567 1227.88 679.879 1229.02 679.616 1230.5 C 671.253 1229.29 658.964 1227.24 652.815 1221.11 C 652.134 1218.15 652.586 1217.83 653.867 1215.02 z"/>
<path transform="translate(0,0)" fill="rgb(0,0,0)" d="M 1523.05 314.692 C 1529.4 317.882 1534.44 326.022 1536.66 332.61 C 1538.02 336.64 1537.36 338.594 1535.62 342.218 C 1535.22 341.939 1534.8 341.671 1534.41 341.38 C 1529.98 338.129 1521.48 324.447 1520.89 318.66 C 1520.72 317.003 1522.11 315.95 1523.05 314.692 z"/>
<path transform="translate(0,0)" fill="rgb(0,0,0)" d="M 1103.74 124.196 C 1111.83 126.767 1129.82 124.956 1135.54 130.047 L 1135.52 133.058 C 1125.95 136.096 1112.68 133.948 1103.88 129.615 C 1102.6 127.115 1102.99 126.958 1103.74 124.196 z"/>
<path transform="translate(0,0)" fill="rgb(0,0,0)" d="M 1555.34 330.872 C 1556.86 330.908 1558.51 330.872 1559.94 331.465 C 1562.91 332.69 1565.23 336.886 1566.62 339.611 C 1569.54 345.355 1570.85 351.918 1568.85 358.09 C 1566.85 357.584 1566.08 357.281 1564.69 355.642 C 1560.46 350.656 1554.42 337.592 1555.34 330.872 z"/>
<path transform="translate(0,0)" fill="rgb(0,0,0)" d="M 1507.9 412.783 C 1508.42 412.992 1508.95 413.185 1509.46 413.41 C 1512.81 414.882 1513.79 417.71 1514.91 420.96 C 1517.03 427.138 1518.91 435.504 1515.9 441.447 C 1514.77 441.015 1513.73 440.689 1512.72 439.966 C 1508.86 437.203 1506.64 427.768 1505.91 423.217 C 1505.15 418.496 1505.08 416.716 1507.9 412.783 z"/>
<path transform="translate(0,0)" fill="rgb(0,0,0)" d="M 1376.45 550.233 C 1376.96 550.308 1377.48 550.343 1377.98 550.458 C 1380.45 551.022 1381.76 551.817 1383.07 553.979 C 1387.04 560.491 1389.95 572.165 1388.28 579.732 C 1386.14 579.917 1385.02 580.016 1383.22 578.477 C 1377.67 573.748 1377.3 557.357 1376.45 550.233 z"/>
<path transform="translate(0,0)" fill="rgb(0,0,0)" d="M 265.716 1243.17 C 267.55 1242.84 268.595 1242.91 270.427 1243.45 C 276.379 1245.23 284.108 1251.5 287.172 1256.72 L 286.469 1258.5 L 283.427 1259.2 L 281.537 1257.71 C 277.397 1254.98 272.884 1252.82 268.484 1250.55 A 121.709 121.709 0 0 1 264.089 1251.91 C 261.233 1252.71 259.448 1252.94 256.834 1251.45 L 256.77 1249.54 C 259.183 1246.22 262.106 1244.97 265.716 1243.17 z"/>
<path transform="translate(0,0)" fill="rgb(0,0,0)" d="M 210.126 1223.58 C 211.526 1223.95 213.264 1224.3 214.451 1225.17 C 216.708 1226.83 219.699 1232.58 219.764 1235.46 C 219.829 1238.38 219.255 1238.99 217.543 1241.16 C 208.468 1244.76 214.972 1243.72 210.338 1251.46 C 208.293 1251.35 206.432 1250.97 204.435 1250.52 C 202.606 1248.53 202.517 1248.63 202.44 1245.94 C 204.979 1242.9 207.073 1243.06 210.84 1242.52 C 210.358 1235.32 207.34 1230.95 210.126 1223.58 z"/>
<path transform="translate(0,0)" fill="rgb(0,0,0)" d="M 249.889 1085.22 L 252.913 1086.66 C 256.934 1092.65 261.756 1097.16 266.513 1102.48 C 268.552 1104.75 268.821 1105.46 268.747 1108.52 C 266.721 1108.69 264.566 1108.91 262.544 1108.58 C 258.211 1107.87 253.843 1105.3 251.409 1101.63 C 247.811 1096.19 248.647 1091.26 249.889 1085.22 z"/>
<path transform="translate(0,0)" fill="rgb(0,0,0)" d="M 1564.9 294.782 C 1565.37 294.919 1565.85 295.014 1566.31 295.194 C 1570.97 297.043 1577.16 306.892 1579.48 311.358 C 1582.42 317.027 1583.92 320.749 1581.94 326.954 C 1581.46 326.698 1580.97 326.458 1580.49 326.185 C 1575.24 323.162 1564.08 305.811 1563.09 299.777 C 1562.69 297.341 1563.59 296.709 1564.9 294.782 z"/>
<path transform="translate(0,0)" fill="rgb(0,0,0)" d="M 620.414 1249.64 C 626.678 1250.87 658.12 1265.11 661.133 1269.24 C 661.967 1270.38 660.992 1272.66 660.732 1273.96 C 659.629 1273.72 658.546 1273.45 657.449 1273.19 C 655.74 1272.78 654.031 1272.39 652.373 1271.79 C 644.307 1268.9 622.4 1260.32 619.093 1253.02 L 620.414 1249.64 z"/>
<path transform="translate(0,0)" fill="rgb(0,0,0)" d="M 1448.9 497.678 C 1449.27 497.823 1449.65 497.933 1449.99 498.112 C 1454.59 500.478 1457.95 509.662 1459.84 514.246 C 1462.68 521.163 1465.75 527.791 1462.78 535.057 C 1460.91 534.975 1459.67 535 1458.14 533.781 C 1453.08 529.758 1449.95 517.477 1448.48 511.441 C 1447.17 506.07 1445.86 502.682 1448.9 497.678 z"/>
<path transform="translate(0,0)" fill="rgb(0,0,0)" d="M 1464.37 571.527 C 1464.82 571.644 1465.28 571.735 1465.73 571.88 C 1468.09 572.652 1469.19 573.633 1470.37 575.823 C 1477.94 589.824 1475.16 611.052 1471.23 625.8 C 1468.99 625.92 1469.39 626.232 1467.36 624.776 C 1466.65 616.189 1469.47 607.697 1468.82 599.206 C 1468.12 589.915 1464.9 580.881 1464.37 571.527 z"/>
<path transform="translate(0,0)" fill="rgb(0,0,0)" d="M 438.22 1239.85 C 446.678 1241.67 478.632 1257.85 486.212 1263.36 C 488.473 1265.01 488.382 1265.32 488.743 1267.94 C 477.428 1268.97 451.861 1255.21 442.822 1247.94 C 439.612 1245.36 438.59 1243.95 438.22 1239.85 z"/>
<path transform="translate(0,0)" fill="rgb(0,0,0)" d="M 1437.85 580.434 C 1438.43 580.582 1439.02 580.691 1439.58 580.877 C 1441.22 581.414 1442.03 582.725 1442.79 584.162 C 1450.28 598.441 1450.98 630.917 1446.45 646.302 L 1444.28 646.324 C 1444.09 646.047 1443.87 645.791 1443.72 645.491 C 1441.37 640.693 1443.22 629.957 1443.3 624.591 C 1443.43 616.002 1436.17 585.635 1437.38 581.768 C 1437.52 581.318 1437.69 580.879 1437.85 580.434 z"/>
<path transform="translate(0,0)" fill="rgb(0,0,0)" d="M 1495.27 589.209 L 1497.05 589.811 C 1497.83 590.701 1498.31 591.504 1498.66 592.642 C 1504.21 610.955 1495.98 640.927 1487.71 657.661 L 1486.92 658.392 L 1485.38 657.844 C 1483.9 648.594 1491.44 634.629 1492.77 624.93 C 1493.48 619.727 1493.1 614.123 1493.07 608.87 C 1493.03 602.735 1491.67 594.402 1495.27 589.209 z"/>
<path transform="translate(0,0)" fill="rgb(0,0,0)" d="M 1502.28 473.235 C 1502.64 473.29 1503 473.315 1503.35 473.399 C 1506.72 474.213 1508.31 475.871 1510.1 478.772 C 1520.1 495.037 1521.65 526.678 1517.37 544.813 C 1515.3 545.726 1516.35 545.681 1514.2 544.929 C 1512.34 540.302 1512.73 514.39 1511.44 506.376 C 1509.59 494.822 1504.42 484.501 1502.28 473.235 z"/>
<path transform="translate(0,0)" fill="rgb(0,0,0)" d="M 344.064 1215.64 C 346.642 1216.49 398.124 1249.6 399.9 1251.93 L 399.041 1255.21 C 397.919 1255.14 396.784 1255.1 395.668 1254.95 C 384.345 1253.45 350.32 1229.92 344.259 1220.32 C 343.001 1218.33 343.636 1217.84 344.064 1215.64 z"/>
<path transform="translate(0,0)" fill="rgb(0,0,0)" d="M 1526.42 461.256 C 1529.98 462.233 1531.7 462.785 1533.67 466.001 C 1541.11 478.18 1541.54 502.508 1538.51 516.119 C 1536.88 515.918 1535.31 516.225 1534.21 514.862 C 1530.56 510.34 1525.38 468.586 1526.42 461.256 z"/>
<path transform="translate(0,0)" fill="rgb(0,0,0)" d="M 180.563 1234.57 C 182.054 1234.52 181.967 1234.34 183.316 1235 C 186.629 1236.62 188.943 1240.05 189.989 1243.51 C 191.034 1246.96 190.653 1251.51 188.727 1254.59 C 186.463 1258.22 182.727 1258.59 178.895 1259.31 C 177.308 1258.82 175.664 1258.33 174.165 1257.61 C 169.876 1255.54 167.835 1250.57 166.359 1246.35 C 165.19 1243.01 165.139 1240.84 166.753 1237.58 C 171.168 1234.22 175.132 1234.79 180.563 1234.57 z"/>
<path transform="translate(0,0)" fill="rgb(254,234,121)" d="M 173.161 1239.86 C 174.913 1239.7 176.741 1239.59 178.493 1239.74 C 180.536 1239.91 182.492 1240.94 183.67 1242.66 C 185.87 1245.87 184.787 1249.93 183.801 1253.33 L 179.474 1253.72 C 177.775 1253.11 176.25 1252.61 175.026 1251.18 C 172.28 1247.96 172.607 1243.74 173.161 1239.86 z"/>
<path transform="translate(0,0)" fill="rgb(0,0,0)" d="M 600.102 1282.82 C 611.209 1285.13 658.171 1312.43 667.335 1320.31 L 667.434 1322.24 C 666.044 1322.32 664.421 1322.5 663.021 1322.31 C 654.84 1321.2 603.968 1293.02 599.837 1286.91 C 598.867 1285.47 599.697 1284.37 600.102 1282.82 z"/>
<path transform="translate(0,0)" fill="rgb(0,0,0)" d="M 496.088 1296.53 C 497.256 1296.63 498.294 1296.73 499.419 1297.08 C 510.523 1300.56 577.441 1336.76 581.314 1344.91 C 561.24 1337.3 516.453 1316.71 500.518 1304.6 C 497.112 1302.01 496.62 1300.77 496.088 1296.53 z"/>
<path transform="translate(0,0)" fill="rgb(0,0,0)" d="M 230.862 1260.8 C 239.046 1261.09 244.373 1266.12 250.309 1271.12 C 258.358 1267.1 270.13 1265.31 278.868 1267.83 C 281.191 1268.5 282.344 1268.9 283.59 1271.07 C 280.636 1273.11 275.566 1272.62 272.053 1272.77 C 264.901 1273.97 257.864 1274.29 250.642 1274.83 C 248.886 1276.65 247.528 1278.58 246.111 1280.66 C 243.398 1282.15 241.152 1283 238.007 1283.03 C 234.289 1283.05 230.283 1281.76 227.692 1279 C 225.214 1276.36 224.666 1273.11 224.987 1269.63 C 225.376 1265.39 227.884 1263.4 230.862 1260.8 z"/>
<path transform="translate(0,0)" fill="rgb(254,234,121)" d="M 232.622 1266.45 C 236.819 1267.04 240.636 1268.25 243.277 1271.76 C 243.892 1275.39 243.415 1275.67 241.771 1278.81 C 240.406 1278.87 238.889 1279.01 237.525 1278.76 C 235.149 1278.32 232.866 1276.78 231.882 1274.55 C 230.571 1271.57 231.566 1269.26 232.622 1266.45 z"/>
<path transform="translate(0,0)" fill="rgb(0,0,0)" d="M 1541.44 510.468 C 1543.56 510.705 1545.12 511.056 1547.08 511.91 C 1555.97 526.224 1548.96 599.893 1545.15 617.784 L 1544.49 619.544 L 1543.48 619.651 C 1541.29 605.128 1544.28 588.176 1544.02 573.346 C 1543.64 552.59 1539.99 531.112 1541.44 510.468 z"/>
<path transform="translate(0,0)" fill="rgb(0,0,0)" d="M 399.858 1274.59 C 414.897 1280.29 503.14 1325.91 509.213 1334.22 C 507.932 1334.22 507.607 1334.27 506.425 1334.09 C 496.936 1332.69 402.928 1285.47 399.585 1280.38 C 398.771 1279.15 399.661 1276.08 399.858 1274.59 z"/>
<path transform="translate(0,0)" fill="rgb(0,0,0)" d="M 549.234 1293.8 C 558.227 1296.09 568.255 1302.9 576.562 1307.29 C 596.793 1317.97 617.035 1329.28 637.735 1339 C 647.495 1343.59 662.062 1345.25 670.308 1351.74 L 669.692 1351.83 C 656.453 1353.98 640.164 1346.46 628.347 1341.04 C 611.483 1333.3 565.992 1312.34 553.752 1301.43 C 551.371 1299.31 550.32 1296.73 549.234 1293.8 z"/>
</svg>
